<?xml version="1.0" encoding="UTF-8"?><svg xmlns="http://www.w3.org/2000/svg" xmlns:xlink="http://www.w3.org/1999/xlink" contentScriptType="text/ecmascript" width="600pt" zoomAndPan="magnify" contentStyleType="text/css" viewBox="0 0 600 127.500001" height="127.500001pt" preserveAspectRatio="xMidYMid meet" version="1.2"><defs><g/><clipPath xml:id="clip1" id="clip1"><path d="M 1.171875 0 L 598.828125 0 L 598.828125 127.003906 L 1.171875 127.003906 Z M 1.171875 0 "/></clipPath></defs><g xml:id="surface1" id="surface1"><g clip-rule="nonzero" clip-path="url(#clip1)"><path style=" stroke:none;fill-rule:nonzero;fill:rgb(100%,100%,100%);fill-opacity:1;" d="M 1.171875 0 L 598.828125 0 L 598.828125 134.472656 L 1.171875 134.472656 Z M 1.171875 0 "/><path style=" stroke:none;fill-rule:nonzero;fill:rgb(100%,100%,100%);fill-opacity:1;" d="M 1.171875 0 L 598.828125 0 L 598.828125 127.003906 L 1.171875 127.003906 Z M 1.171875 0 "/><path style=" stroke:none;fill-rule:nonzero;fill:rgb(100%,100%,100%);fill-opacity:1;" d="M 1.171875 0 L 598.828125 0 L 598.828125 127.003906 L 1.171875 127.003906 Z M 1.171875 0 "/></g><g style="fill:rgb(0%,0%,0%);fill-opacity:1;"><g transform="translate(2.428541, 88.236008)"><path style="stroke:none;" d="M 54.078125 -35.484375 C 54.078125 -32.359375 53.234375 -29.53125 51.546875 -27 C 49.867188 -24.46875 47.414062 -22.609375 44.1875 -21.421875 L 55.5625 0 L 37.125 0 L 28.046875 -18.671875 L 21.9375 -18.671875 L 21.9375 0 L 5.5 0 L 5.5 -51.1875 L 36.828125 -51.1875 C 40.492188 -51.1875 43.628906 -50.476562 46.234375 -49.0625 C 48.835938 -47.644531 50.796875 -45.734375 52.109375 -43.328125 C 53.421875 -40.921875 54.078125 -38.304688 54.078125 -35.484375 Z M 37.34375 -34.8125 C 37.34375 -36.15625 36.894531 -37.269531 36 -38.15625 C 35.113281 -39.050781 34.023438 -39.5 32.734375 -39.5 L 21.9375 -39.5 L 21.9375 -30.046875 L 32.734375 -30.046875 C 34.023438 -30.046875 35.113281 -30.503906 36 -31.421875 C 36.894531 -32.347656 37.34375 -33.476562 37.34375 -34.8125 Z M 37.34375 -34.8125 "/></g></g><g style="fill:rgb(0%,0%,0%);fill-opacity:1;"><g transform="translate(60.305777, 88.236008)"><path style="stroke:none;" d="M 24.765625 -40.171875 C 31.660156 -40.171875 37.078125 -38.421875 41.015625 -34.921875 C 44.960938 -31.429688 46.9375 -26.335938 46.9375 -19.640625 C 46.9375 -12.941406 44.960938 -7.84375 41.015625 -4.34375 C 37.078125 -0.851562 31.660156 0.890625 24.765625 0.890625 C 17.878906 0.890625 12.472656 -0.84375 8.546875 -4.3125 C 4.628906 -7.78125 2.671875 -12.890625 2.671875 -19.640625 C 2.671875 -26.378906 4.628906 -31.484375 8.546875 -34.953125 C 12.472656 -38.429688 17.878906 -40.171875 24.765625 -40.171875 Z M 24.765625 -30.125 C 19.910156 -30.125 17.484375 -27.320312 17.484375 -21.71875 L 17.484375 -17.484375 C 17.484375 -11.929688 19.910156 -9.15625 24.765625 -9.15625 C 29.679688 -9.15625 32.140625 -11.929688 32.140625 -17.484375 L 32.140625 -21.71875 C 32.140625 -27.320312 29.679688 -30.125 24.765625 -30.125 Z M 24.765625 -30.125 "/></g></g><g style="fill:rgb(0%,0%,0%);fill-opacity:1;"><g transform="translate(109.925463, 88.236008)"><path style="stroke:none;" d="M 32.953125 0 L 31.984375 -5.953125 C 30.453125 -3.816406 28.429688 -2.140625 25.921875 -0.921875 C 23.421875 0.285156 20.78125 0.890625 18 0.890625 C 13.4375 0.890625 10.015625 -0.367188 7.734375 -2.890625 C 5.453125 -5.421875 4.3125 -9.070312 4.3125 -13.84375 L 4.3125 -39.28125 L 19.125 -39.28125 L 19.125 -15.625 C 19.125 -13.9375 19.554688 -12.582031 20.421875 -11.5625 C 21.285156 -10.550781 22.515625 -10.046875 24.109375 -10.046875 C 25.941406 -10.046875 27.425781 -10.640625 28.5625 -11.828125 C 29.707031 -13.015625 30.28125 -14.476562 30.28125 -16.21875 L 30.28125 -39.28125 L 45.078125 -39.28125 L 45.078125 0 Z M 32.953125 0 "/></g></g><g style="fill:rgb(0%,0%,0%);fill-opacity:1;"><g transform="translate(159.545149, 88.236008)"><path style="stroke:none;" d="M 23.875 -40.171875 C 29.875 -40.171875 34.757812 -39.164062 38.53125 -37.15625 C 42.300781 -35.144531 44.1875 -31.882812 44.1875 -27.375 L 44.1875 -12.046875 C 44.1875 -11.203125 44.382812 -10.507812 44.78125 -9.96875 C 45.175781 -9.425781 45.769531 -9.15625 46.5625 -9.15625 L 49.25 -9.15625 L 49.25 -0.59375 C 49.101562 -0.5 48.71875 -0.335938 48.09375 -0.109375 C 47.46875 0.109375 46.582031 0.328125 45.4375 0.546875 C 44.300781 0.773438 42.992188 0.890625 41.515625 0.890625 C 38.640625 0.890625 36.269531 0.457031 34.40625 -0.40625 C 32.539062 -1.28125 31.265625 -2.484375 30.578125 -4.015625 C 28.691406 -2.523438 26.582031 -1.332031 24.25 -0.4375 C 21.914062 0.445312 19.1875 0.890625 16.0625 0.890625 C 6.84375 0.890625 2.234375 -2.773438 2.234375 -10.109375 C 2.234375 -13.929688 3.257812 -16.847656 5.3125 -18.859375 C 7.375 -20.867188 10.335938 -22.242188 14.203125 -22.984375 C 18.078125 -23.734375 23.140625 -24.109375 29.390625 -24.109375 L 29.390625 -26.03125 C 29.390625 -27.570312 28.851562 -28.738281 27.78125 -29.53125 C 26.71875 -30.320312 25.34375 -30.71875 23.65625 -30.71875 C 22.113281 -30.71875 20.785156 -30.445312 19.671875 -29.90625 C 18.554688 -29.363281 18 -28.492188 18 -27.296875 L 18 -27 L 3.421875 -27 C 3.367188 -27.25 3.34375 -27.597656 3.34375 -28.046875 C 3.34375 -31.765625 5.113281 -34.710938 8.65625 -36.890625 C 12.207031 -39.078125 17.28125 -40.171875 23.875 -40.171875 Z M 29.390625 -17.109375 C 25.171875 -17.109375 22.054688 -16.648438 20.046875 -15.734375 C 18.035156 -14.816406 17.03125 -13.585938 17.03125 -12.046875 C 17.03125 -9.566406 18.71875 -8.328125 22.09375 -8.328125 C 24.03125 -8.328125 25.726562 -8.847656 27.1875 -9.890625 C 28.65625 -10.929688 29.390625 -12.222656 29.390625 -13.765625 Z M 29.390625 -17.109375 "/></g></g><g style="fill:rgb(0%,0%,0%);fill-opacity:1;"><g transform="translate(209.164823, 88.236008)"><path style="stroke:none;" d=""/></g></g><g style="fill:rgb(0%,0%,0%);fill-opacity:1;"><g transform="translate(233.937484, 88.236008)"><path style="stroke:none;" d="M 27.671875 -51.1875 C 45.578125 -51.1875 54.53125 -42.65625 54.53125 -25.59375 C 54.53125 -8.53125 45.578125 0 27.671875 0 L 5.5 0 L 5.5 -51.1875 Z M 21.9375 -12.28125 L 27.375 -12.28125 C 34.269531 -12.28125 37.71875 -15.972656 37.71875 -23.359375 L 37.71875 -27.828125 C 37.71875 -35.210938 34.269531 -38.90625 27.375 -38.90625 L 21.9375 -38.90625 Z M 21.9375 -12.28125 "/></g></g><g style="fill:rgb(0%,0%,0%);fill-opacity:1;"><g transform="translate(291.81472, 88.236008)"><path style="stroke:none;" d="M 4.984375 -43.890625 L 4.984375 -53.9375 L 19.78125 -53.9375 L 19.78125 -43.890625 Z M 4.984375 0 L 4.984375 -39.28125 L 19.78125 -39.28125 L 19.78125 0 Z M 4.984375 0 "/></g></g><g style="fill:rgb(0%,0%,0%);fill-opacity:1;"><g transform="translate(316.587381, 88.236008)"><path style="stroke:none;" d="M 56.609375 -40.171875 C 61.078125 -40.171875 64.425781 -38.894531 66.65625 -36.34375 C 68.882812 -33.789062 70 -30.15625 70 -25.4375 L 70 0 L 55.203125 0 L 55.203125 -23.65625 C 55.203125 -25.34375 54.789062 -26.691406 53.96875 -27.703125 C 53.15625 -28.722656 52.003906 -29.234375 50.515625 -29.234375 C 48.773438 -29.234375 47.359375 -28.640625 46.265625 -27.453125 C 45.179688 -26.265625 44.640625 -24.800781 44.640625 -23.0625 L 44.640625 0 L 29.828125 0 L 29.828125 -23.65625 C 29.828125 -25.34375 29.414062 -26.691406 28.59375 -27.703125 C 27.78125 -28.722656 26.628906 -29.234375 25.140625 -29.234375 C 23.410156 -29.234375 22 -28.640625 20.90625 -27.453125 C 19.8125 -26.265625 19.265625 -24.800781 19.265625 -23.0625 L 19.265625 0 L 4.46875 0 L 4.46875 -39.28125 L 16.59375 -39.28125 L 17.5625 -33.40625 C 19.039062 -35.488281 21.007812 -37.132812 23.46875 -38.34375 C 25.925781 -39.5625 28.519531 -40.171875 31.25 -40.171875 C 37.144531 -40.171875 41.109375 -37.914062 43.140625 -33.40625 C 44.679688 -35.488281 46.65625 -37.132812 49.0625 -38.34375 C 51.46875 -39.5625 53.984375 -40.171875 56.609375 -40.171875 Z M 56.609375 -40.171875 "/></g></g><g style="fill:rgb(0%,0%,0%);fill-opacity:1;"><g transform="translate(390.97974, 88.236008)"><path style="stroke:none;" d="M 4.984375 -43.890625 L 4.984375 -53.9375 L 19.78125 -53.9375 L 19.78125 -43.890625 Z M 4.984375 0 L 4.984375 -39.28125 L 19.78125 -39.28125 L 19.78125 0 Z M 4.984375 0 "/></g></g><g style="fill:rgb(0%,0%,0%);fill-opacity:1;"><g transform="translate(415.752402, 88.236008)"><path style="stroke:none;" d="M 31.546875 -40.171875 C 36.109375 -40.171875 39.53125 -38.90625 41.8125 -36.375 C 44.09375 -33.84375 45.234375 -30.195312 45.234375 -25.4375 L 45.234375 0 L 30.421875 0 L 30.421875 -23.65625 C 30.421875 -25.34375 29.988281 -26.691406 29.125 -27.703125 C 28.257812 -28.722656 27.03125 -29.234375 25.4375 -29.234375 C 23.601562 -29.234375 22.113281 -28.640625 20.96875 -27.453125 C 19.832031 -26.265625 19.265625 -24.800781 19.265625 -23.0625 L 19.265625 0 L 4.46875 0 L 4.46875 -39.28125 L 16.59375 -39.28125 L 17.5625 -33.328125 C 19.09375 -35.410156 21.109375 -37.070312 23.609375 -38.3125 C 26.117188 -39.550781 28.765625 -40.171875 31.546875 -40.171875 Z M 31.546875 -40.171875 "/></g></g><g style="fill:rgb(0%,0%,0%);fill-opacity:1;"><g transform="translate(465.372099, 88.236008)"><path style="stroke:none;" d="M 24.765625 -40.171875 C 31.960938 -40.171875 37.457031 -38.484375 41.25 -35.109375 C 45.039062 -31.734375 46.9375 -26.578125 46.9375 -19.640625 L 46.9375 -17.109375 L 17.484375 -17.109375 C 17.484375 -14.285156 18.113281 -12.15625 19.375 -10.71875 C 20.644531 -9.28125 22.644531 -8.5625 25.375 -8.5625 C 27.851562 -8.5625 29.671875 -9.078125 30.828125 -10.109375 C 31.992188 -11.148438 32.578125 -12.539062 32.578125 -14.28125 L 46.9375 -14.28125 C 46.9375 -9.519531 45.125 -5.800781 41.5 -3.125 C 37.882812 -0.445312 32.609375 0.890625 25.671875 0.890625 C 18.378906 0.890625 12.722656 -0.804688 8.703125 -4.203125 C 4.679688 -7.597656 2.671875 -12.742188 2.671875 -19.640625 C 2.671875 -26.378906 4.628906 -31.484375 8.546875 -34.953125 C 12.472656 -38.429688 17.878906 -40.171875 24.765625 -40.171875 Z M 25.375 -30.71875 C 20.707031 -30.71875 18.101562 -28.515625 17.5625 -24.109375 L 31.984375 -24.109375 C 31.984375 -26.140625 31.398438 -27.75 30.234375 -28.9375 C 29.066406 -30.125 27.445312 -30.71875 25.375 -30.71875 Z M 25.375 -30.71875 "/></g></g><g style="fill:rgb(0%,0%,0%);fill-opacity:1;"><g transform="translate(514.991796, 88.236008)"><path style="stroke:none;" d="M 30.65625 -39.28125 L 30.65625 -29.234375 L 22.3125 -29.234375 L 22.3125 -14.28125 C 22.3125 -12.5 22.609375 -11.195312 23.203125 -10.375 C 23.804688 -9.5625 24.898438 -9.15625 26.484375 -9.15625 L 30.65625 -9.15625 L 30.65625 -0.453125 C 29.457031 -0.046875 27.914062 0.273438 26.03125 0.515625 C 24.144531 0.765625 22.507812 0.890625 21.125 0.890625 C 16.757812 0.890625 13.398438 0.0976562 11.046875 -1.484375 C 8.691406 -3.078125 7.515625 -5.78125 7.515625 -9.59375 L 7.515625 -29.234375 L 2.015625 -29.234375 L 2.015625 -39.28125 L 8.109375 -39.28125 L 11.3125 -51.1875 L 22.3125 -51.1875 L 22.3125 -39.28125 Z M 20.53125 19.859375 L 15.546875 19.859375 L 18.59375 13.015625 L 14.953125 13.015625 L 14.953125 4.390625 L 24.625 4.390625 L 24.625 12.5 Z M 20.53125 19.859375 "/></g></g><g style="fill:rgb(0%,0%,0%);fill-opacity:1;"><g transform="translate(548.021996, 88.236008)"><path style="stroke:none;" d="M 4.984375 -43.890625 L 4.984375 -53.9375 L 19.78125 -53.9375 L 19.78125 -43.890625 Z M 4.984375 0 L 4.984375 -39.28125 L 19.78125 -39.28125 L 19.78125 0 Z M 4.984375 0 "/></g></g><g style="fill:rgb(0%,0%,0%);fill-opacity:1;"><g transform="translate(572.794658, 88.236008)"><path style="stroke:none;" d="M 4.984375 -43.890625 L 4.984375 -53.9375 L 19.78125 -53.9375 L 19.78125 -43.890625 Z M 4.984375 0 L 4.984375 -39.28125 L 19.78125 -39.28125 L 19.78125 0 Z M 4.984375 0 "/></g></g></g></svg>