<?xml version="1.0" encoding="UTF-8"?><!DOCTYPE svg PUBLIC "-//W3C//DTD SVG 1.1//EN" "http://www.w3.org/Graphics/SVG/1.1/DTD/svg11.dtd"><svg xmlns="http://www.w3.org/2000/svg" xmlns:xlink="http://www.w3.org/1999/xlink"><defs>
    <path id="30years_en-a" d="M25,100.75 C35.875,100.75 41.25,95.375 41.25,84.5 L41.25,66 C41.25,59.625 39,56.25 33.75,54.75 C38.375,53 41,49.25 41,41.75 L41,28 C41,17.125 35.625,11.75 24.75,11.75 L19.375,11.75 C8.5,11.75 3.125,17.125 3.125,28 L3.125,40.125 L15.875,40.125 L15.875,28.625 C15.875,25.125 17.5,23.5 20.875,23.5 L22.875,23.5 C26.125,23.5 27.75,25.125 27.75,28.625 L27.75,44.5 C27.75,47.875 26.125,49.5 22.875,49.5 L11.5,49.5 L11.5,61.5 L23.125,61.5 C26.375,61.5 28,63.125 28,66.625 L28,83.875 C28,87.375 26.375,89 23,89 L20.75,89 C17.25,89 15.625,87.375 15.625,83.875 L15.625,70.75 L2.875,70.75 L2.875,84.625 C2.875,95.5 8.25,100.75 19,100.75 L25,100.75 Z M71.5,100.75 C82.375,100.75 87.75,95.375 87.75,84.5 L87.75,28 C87.75,17.125 82.375,11.75 71.5,11.75 L64.875,11.75 C54,11.75 48.625,17.125 48.625,28 L48.625,84.5 C48.625,95.375 54,100.75 64.875,100.75 L71.5,100.75 Z M69.5,89 L67,89 C63.5,89 61.875,87.375 61.875,83.875 L61.875,28.625 C61.875,25.125 63.5,23.5 67,23.5 L69.5,23.5 C72.875,23.5 74.5,25.125 74.5,28.625 L74.5,83.875 C74.5,87.375 72.875,89 69.5,89 Z"/>
    <path id="30years_en-b" d="M13.62,145 L13.62,132.55 L19.37,110 L14.22,110 L11.02,124.9 L8.02,110 L2.52,110 L8.27,133.1 L8.27,145 L13.62,145 Z M33.12,145 L33.12,140.15 L26.47,140.15 L26.47,129.6 L32.77,129.6 L32.77,124.75 L26.47,124.75 L26.47,114.85 L33.02,114.85 L33.02,110 L21.12,110 L21.12,145 L33.12,145 Z M39.77,145 L40.42,139.5 L45.97,139.5 L46.67,145 L51.97,145 L46.92,109.95 L39.82,109.95 L34.82,145 L39.77,145 Z M45.37,134.75 L41.02,134.75 L43.17,117.05 L45.37,134.75 Z M59.52,145 L59.52,130.95 L61.92,130.95 C63.47,130.95 64.17,131.65 64.17,133.2 L64.17,145 L69.52,145 L69.52,133.1 C69.52,130.45 68.62,129.1 66.42,128.5 C68.37,127.7 69.47,126.2 69.47,123.1 L69.47,116.5 C69.47,112.15 67.32,110 62.97,110 L54.17,110 L54.17,145 L59.52,145 Z M61.92,126.3 L59.52,126.3 L59.52,114.75 L62.12,114.75 C63.47,114.75 64.12,115.4 64.12,116.75 L64.12,124.15 C64.12,125.6 63.42,126.3 61.92,126.3 Z M81.27,145.3 C85.62,145.3 87.77,143.15 87.77,138.8 L87.77,133.1 C87.77,130.25 87.02,128.75 84.67,127.05 L79.27,123.1 C78.27,122.4 77.77,121.7 77.77,120.25 L77.77,116.35 C77.77,115 78.42,114.35 79.77,114.35 L80.42,114.35 C81.77,114.35 82.42,115 82.42,116.35 L82.42,122.5 L87.67,122.5 L87.67,116.15 C87.67,111.85 85.52,109.7 81.22,109.7 L78.97,109.7 C74.62,109.7 72.47,111.85 72.47,116.2 L72.47,121 C72.47,123.7 73.17,125.35 75.57,127.05 L80.97,131 C81.97,131.75 82.47,132.4 82.47,133.85 L82.47,138.65 C82.47,140 81.82,140.65 80.42,140.65 L79.72,140.65 C78.32,140.65 77.67,140 77.67,138.65 L77.67,131.45 L72.47,131.45 L72.47,138.85 C72.47,143.15 74.57,145.3 78.92,145.3 L81.27,145.3 Z"/>
  
    <polygon id="30years-a" points=".019 .024 56.472 .024 56.472 106.156 .019 106.156"/>
    <polygon id="30years-c" points="0 .03 195.382 .03 195.382 56.483 0 56.483"/>
  
    <polygon id="arrow-up-a" points=".572 .382 175.122 .382 175.122 174.932 .572 174.932"/>
    <polygon id="arrow-up-c" points="0 .057 125.426 .057 125.426 125.483 0 125.483"/>
    <polygon id="arrow-up-e" points=".22 .111 64.367 .111 64.367 256.7 .22 256.7"/>
  
    <polygon id="circle-document-a" points="0 0 43.347 0 43.347 39.9 0 39.9"/>
  </defs><symbol id="30years_en" viewBox="0 0 430 430">
  
  <g fill="none">
    <path fill="#0045DE" d="M37,88.85 L88.85,37 C96.35,29.5 108.51,29.5 116.01,37 L392.67,313.66 C400.17,321.16 400.17,333.33 392.67,340.83 L340.82,392.68 C333.32,400.18 321.16,400.18 313.66,392.68 L37,116.01 C29.5,108.51 29.5,96.35 37,88.85"/>
    <path fill="#2BFBD1" d="M178.17,0 L251.49,0 C262.1,0 270.7,8.6 270.7,19.2 L270.7,195.62 C270.7,206.23 262.1,214.83 251.49,214.83 L178.17,214.83 C167.56,214.83 158.97,206.23 158.97,195.62 L158.97,19.2 C158.97,8.6 167.56,0 178.17,0"/>
    <path fill="#000" d="M88.85,392.67 L37,340.83 C29.5,333.33 29.5,321.17 37,313.67 L313.66,37 C321.16,29.5 333.33,29.5 340.83,37 L392.68,88.85 C400.18,96.35 400.18,108.51 392.68,116.01 L116.01,392.67 C108.51,400.17 96.35,400.17 88.85,392.67"/>
    <path fill="#000" d="M0,251.5 L0,178.18 C0,167.57 8.6,158.97 19.2,158.97 L410.45,158.97 C421.06,158.97 429.66,167.57 429.66,178.18 L429.66,251.5 C429.66,262.11 421.06,270.700009 410.45,270.700009 L19.2,270.700009 C8.6,270.71 0,262.11 0,251.5"/>
    <path fill="#000" d="M178.17,214.84 L251.49,214.84 C262.1,214.84 270.7,223.44 270.7,234.04 L270.7,410.46 C270.7,421.07 262.1,429.67 251.49,429.67 L178.17,429.67 C167.56,429.67 158.97,421.07 158.97,410.46 L158.97,234.04 C158.97,223.43 167.56,214.84 178.17,214.84"/>
    <g transform="translate(169.087 160.675)">
      <use fill="#000" xlink:href="#30years_en-a"/>
      <use fill="#FFF" xlink:href="#30years_en-a"/>
      <use fill="#000" xlink:href="#30years_en-b"/>
      <use fill="#FFF" xlink:href="#30years_en-b"/>
    </g>
  </g>
</symbol><symbol id="30years_fr" viewBox="0 0 196 213">
  
  <g fill="none" fill-rule="evenodd" transform="translate(0 -1)">
    <path fill="#0045DE" d="M162.219876,190.479741 L186.136644,166.562972 C190.555476,162.144141 190.770632,155.195072 186.616682,151.041122 L51.5654944,15.9889781 C47.4115444,11.8359844 40.4624756,12.0511406 36.0436444,16.4699719 L12.1268756,40.3867406 C7.70804437,44.8055719 7.49288812,51.7546406 11.6468381,55.9076344 L146.698982,190.959778 C150.851976,195.113728 157.801044,194.898572 162.219876,190.479741"/>
    <path fill="#0045DE" d="M87.1731844,115.433145 L111.089953,91.5163762 C115.508784,87.097545 122.457853,86.8823887 126.611803,91.0363387 L186.617447,151.041026 C190.770441,155.194976 190.555284,162.144045 186.136453,166.562876 L162.219684,190.479645 C157.800853,194.898476 150.851784,195.113632 146.698791,190.959682 L86.6931469,130.954039 C82.5401531,126.801045 82.7543531,119.851976 87.1731844,115.433145"/>
    <path fill="#1D1D1B" d="M114.008141,213.219844 L80.1846225,213.219844 C73.9355288,213.219844 68.8693163,208.457719 68.8693163,202.584431 L68.8693163,117.723937 C68.8693163,111.849694 73.9355288,107.087569 80.1846225,107.087569 L114.008141,107.087569 C120.257235,107.087569 125.322491,111.849694 125.322491,117.723937 L125.322491,202.584431 C125.322491,208.457719 120.257235,213.219844 114.008141,213.219844"/>
    <g transform="translate(68.85 .932)">
      <mask id="30years-b" fill="#fff">
        <use xlink:href="#30years-a"/>
      </mask>
      <path fill="#1AE4B7" d="M45.1581413,106.155512 L11.3346225,106.155512 C5.08552875,106.155512 0.01931625,101.393387 0.01931625,95.5200994 L0.01931625,10.6596056 C0.01931625,4.78536188 5.08552875,0.023236875 11.3346225,0.023236875 L45.1581413,0.023236875 C51.407235,0.023236875 56.4724913,4.78536188 56.4724913,10.6596056 L56.4724913,95.5200994 C56.4724913,101.393387 51.407235,106.155512 45.1581413,106.155512" mask="url(#30years-b)"/>
    </g>
    <g transform="translate(0 72.651)">
      <mask id="30years-d" fill="#fff">
        <use xlink:href="#30years-c"/>
      </mask>
      <path fill="#1D1D1B" d="M195.382339,45.1690425 L195.382339,11.3455237 C195.382339,5.09643 190.998889,0.0302175 185.592251,0.0302175 L9.78951375,0.0302175 C4.38287625,0.0302175 -0.00057375,5.09643 -0.00057375,11.3455237 L-0.00057375,45.1690425 C-0.00057375,51.4181362 4.38287625,56.4833925 9.78951375,56.4833925 L185.592251,56.4833925 C190.998889,56.4833925 195.382339,51.4181362 195.382339,45.1690425" mask="url(#30years-d)"/>
    </g>
    <path fill="#1D1D1B" d="M186.136931,40.3865494 L162.220162,16.4697806 C157.801331,12.0509494 150.852262,11.8357931 146.698312,15.9897431 L11.6461687,151.040931 C7.493175,155.194881 7.70833125,162.143949 12.1271625,166.562781 L36.0439312,190.479549 C40.4627625,194.898381 47.4118312,195.113537 51.564825,190.959587 L186.616969,55.9074431 C190.770919,51.7544494 190.555762,44.8053806 186.136931,40.3865494"/>
    <path fill="#FEFEFE" d="M83.6170819 168.086087L77.6366944 168.086087 73.4244131 197.610306 77.5946194 197.610306 78.1415944 192.977274 82.8167006 192.977274 83.4067069 197.610306 87.8704819 197.610306 83.6170819 168.086087zM80.5006631 174.234774L82.3118006 188.976324 78.6474506 188.976324 80.5006631 174.234774zM99.2001319 186.448956L94.9888069 168.128162 89.7236944 168.128162 89.7236944 197.610306 93.7667194 197.610306 93.7246444 177.730824 98.3156006 197.610306 103.201082 197.610306 103.201082 168.128162 99.1580569 168.128162 99.2001319 186.448956zM116.046388 182.490081L111.497507 179.163287C110.655051 178.573281 110.234301 177.983274 110.234301 176.762143L110.234301 173.477424C110.234301 172.339487 110.782232 171.792512 111.919213 171.792512L112.466188 171.792512C113.604126 171.792512 114.151101 172.339487 114.151101 173.477424L114.151101 178.657431 118.573757 178.657431 118.573757 173.309124C118.573757 169.686849 116.762619 167.875712 113.140344 167.875712L111.245057 167.875712C107.580707 167.875712 105.769569 169.686849 105.769569 173.351199L105.769569 177.394224C105.769569 179.668187 106.359576 181.058574 108.381088 182.490081L112.929969 185.817831C113.772426 186.448956 114.193176 186.996887 114.193176 188.218018L114.193176 192.261043C114.193176 193.398981 113.646201 193.945956 112.466188 193.945956L111.877138 193.945956C110.698082 193.945956 110.150151 193.398981 110.150151 192.261043L110.150151 186.196506 105.769569 186.196506 105.769569 192.430299C105.769569 196.051618 107.538632 197.862756 111.202982 197.862756L113.182419 197.862756C116.846769 197.862756 118.657907 196.051618 118.657907 192.388224L118.657907 187.586893C118.657907 185.185749 118.025826 183.922543 116.046388 182.490081L116.046388 182.490081zM87.5486081 154.145205C87.5486081 155.87793 86.7444019 156.682136 85.0116769 156.682136L83.9588456 156.682136C82.2261206 156.682136 81.4219144 155.87793 81.4219144 154.145205L81.4219144 147.647486 75.1097081 147.647486 75.1097081 154.51623C75.1097081 159.900874 77.7709519 162.499961 83.0924831 162.499961L86.0635519 162.499961C91.4472394 162.499961 94.1084831 159.838718 94.1084831 154.45503L94.1084831 145.295111C94.1084831 142.139486 92.9944519 140.467961 90.3953644 139.725911 92.6855831 138.859549 93.9851269 137.002511 93.9851269 133.289393L93.9851269 126.481849C93.9851269 121.098161 91.3238831 118.436918 85.9392394 118.436918L83.2779956 118.436918C77.8943081 118.436918 75.2330644 121.098161 75.2330644 126.481849L75.2330644 132.485186 81.5452706 132.485186 81.5452706 126.791674C81.5452706 125.058949 82.3504331 124.253786 84.0210019 124.253786L85.0116769 124.253786C86.6200894 124.253786 87.4252519 125.058949 87.4252519 126.791674L87.4252519 134.651093C87.4252519 136.321661 86.6200894 137.126824 85.0116769 137.126824L79.3793644 137.126824 79.3793644 143.067049 85.1350331 143.067049C86.7444019 143.067049 87.5486081 143.872211 87.5486081 145.604936L87.5486081 154.145205zM117.130202 154.45503L117.130202 126.481849C117.130202 121.098161 114.468958 118.436918 109.084314 118.436918L105.804377 118.436918C100.420689 118.436918 97.7594456 121.098161 97.7594456 126.481849L97.7594456 154.45503C97.7594456 159.838718 100.420689 162.499961 105.804377 162.499961L109.084314 162.499961C114.468958 162.499961 117.130202 159.838718 117.130202 154.45503L117.130202 154.45503zM110.570327 126.791674L110.570327 154.145205C110.570327 155.87793 109.765164 156.682136 108.094596 156.682136L106.857208 156.682136C105.123527 156.682136 104.319321 155.87793 104.319321 154.145205L104.319321 126.791674C104.319321 125.058949 105.123527 124.253786 106.857208 124.253786L108.094596 124.253786C109.765164 124.253786 110.570327 125.058949 110.570327 126.791674L110.570327 126.791674zM56.9990025 112.544696L63.7797713 112.544696C68.1603525 112.544696 70.22394 110.439034 70.22394 106.100527L70.22394 89.5067212C70.22394 85.168215 68.1603525 83.0625525 63.7797713 83.0625525L56.9990025 83.0625525 56.9990025 112.544696zM61.5058088 87.0214275L63.14769 87.0214275C64.9167525 87.0214275 65.7171338 87.8638837 65.7171338 89.6329463L65.7171338 105.974303C65.7171338 107.743365 64.9167525 108.585821 63.14769 108.585821L61.5058088 108.585821 61.5058088 87.0214275zM72.8345025 83.0625525L72.8345025 112.544696 82.9430213 112.544696 82.9430213 108.459596 77.3413088 108.459596 77.3413088 99.5722087 82.6484963 99.5722087 82.6484963 95.4871087 77.3413088 95.4871087 77.3413088 87.1476525 82.8588713 87.1476525 82.8588713 83.0625525 72.8345025 83.0625525zM89.850015 101.847127L92.4194588 101.847127C96.0838088 101.847127 97.8949463 100.03599 97.8949463 96.37164L97.8949463 88.53804C97.8949463 84.87369 96.0838088 83.0625525 92.4194588 83.0625525L85.3432088 83.0625525 85.3432088 112.544696 89.850015 112.544696 89.850015 101.847127zM93.38814 88.748415L93.38814 96.161265C93.38814 97.3403212 92.8402088 97.8882525 91.7032275 97.8882525L89.850015 97.8882525 89.850015 87.0214275 91.7032275 87.0214275C92.8402088 87.0214275 93.38814 87.5693587 93.38814 88.748415L93.38814 88.748415zM113.225546 83.0625525L108.71874 83.0625525 108.71874 107.111284C108.71874 108.291296 108.170809 108.838271 107.033828 108.838271L106.317596 108.838271C105.13854 108.838271 104.591565 108.291296 104.591565 107.111284L104.591565 83.0625525 100.084759 83.0625525 100.084759 107.321659C100.084759 110.986009 101.895896 112.797146 105.560246 112.797146L107.750059 112.797146C111.414409 112.797146 113.225546 110.986009 113.225546 107.321659L113.225546 83.0625525zM115.920259 112.544696L120.427065 112.544696 120.427065 83.0625525 115.920259 83.0625525 115.920259 112.544696zM133.314446 97.4244713L128.765565 94.0976775C127.923109 93.5076713 127.502359 92.917665 127.502359 91.6965338L127.502359 88.411815C127.502359 87.2738775 128.049334 86.7269025 129.187271 86.7269025L129.734246 86.7269025C130.871228 86.7269025 131.419159 87.2738775 131.419159 88.411815L131.419159 93.5918212 135.841815 93.5918212 135.841815 88.2425588C135.841815 84.62124 134.030678 82.8101025 130.408402 82.8101025L128.513115 82.8101025C124.848765 82.8101025 123.037627 84.62124 123.037627 88.2846338L123.037627 92.328615C123.037627 94.6025775 123.627634 95.992965 125.649146 97.4244713L130.198027 100.752221C131.040484 101.383346 131.461234 101.931277 131.461234 103.152409L131.461234 107.195434C131.461234 108.333371 130.913303 108.880346 129.734246 108.880346L129.145196 108.880346C127.965184 108.880346 127.418209 108.333371 127.418209 107.195434L127.418209 101.130896 123.037627 101.130896 123.037627 107.36469C123.037627 110.986009 124.80669 112.797146 128.47104 112.797146L130.450478 112.797146C134.114827 112.797146 135.925965 110.986009 135.925965 107.321659L135.925965 102.520328C135.925965 100.12014 135.293884 98.8569337 133.314446 97.4244713L133.314446 97.4244713z"/>
  </g>
</symbol><symbol id="404" viewBox="0 0 371 152">
    <title>Group</title>
    <g id="15---404" stroke="none" stroke-width="1" fill="none" fill-rule="evenodd">
        <g id="1440/legal" transform="translate(-532.000000, -296.000000)" fill="#221E1E">
            <g id="Group" transform="translate(532.500000, 296.500000)">
                <path d="M186.49958,0.5 L186.49958,0.5 C161.199601,0.5 140.5,21.2383465 140.5,46.5865221 L140.5,70.3846384 C140.5,73.0476469 142.653779,75.2062977 145.311812,75.2062977 L160.019092,75.2062977 C162.677126,75.2062977 164.831743,73.0476469 164.831743,70.3846384 L164.831743,46.5856815 C164.831743,40.8385259 167.09963,35.4007097 171.217568,31.275064 C175.334666,27.1494183 180.762323,24.8772871 186.49958,24.8772871 C192.236838,24.8772871 197.664495,27.1494183 201.782432,31.275064 C205.90037,35.4007097 208.168257,40.8385259 208.168257,46.5856815 L208.168257,104.121963 C208.168257,109.869119 205.90037,115.306935 201.782432,119.432581 C199.189843,122.030023 196.917762,123.88858 193.537328,124.910745 C191.507725,125.524381 190.119976,127.394707 190.119976,129.518053 L190.119976,144.666435 C190.119976,147.664001 192.828351,149.968915 195.768297,149.418325 C217.07787,145.422131 232.5,126.586053 232.5,104.121963 L232.5,46.5856815 C232.5,21.2383465 211.79956,0.5 186.49958,0.5 M179.462672,124.910745 C176.082238,123.88858 173.809318,122.030023 171.217568,119.432581 C167.09963,115.306935 164.831743,109.869119 164.831743,104.121963 L164.831743,87.0755147 C164.831743,84.4133468 162.677126,82.254696 160.019092,82.254696 L145.311812,82.254696 C142.653779,82.254696 140.5,84.4133468 140.5,87.0755147 L140.5,104.121963 C140.5,126.586053 155.921291,145.422131 177.230864,149.418325 C180.171649,149.968915 182.880024,147.664001 182.880024,144.666435 L182.880024,129.518053 C182.880024,127.394707 181.491436,125.524381 179.462672,124.910745" id="Fill-1"/>
                <path d="M86.5029267,1.5 L71.9525011,1.5 C69.2049115,1.5 66.9562707,3.73210947 66.9562707,6.46033622 L66.9562707,145.539664 C66.9562707,148.267891 69.2049115,150.5 71.9525011,150.5 L86.5029267,150.5 C89.2513592,150.5 91.5,148.267891 91.5,145.539664 L91.5,6.46033622 C91.5,3.73210947 89.2513592,1.5 86.5029267,1.5 M55.5276463,82.8682544 L5.49707329,82.8682544 C2.74864084,82.8682544 0.5,85.1003638 0.5,87.8285906 L0.5,102.271209 C0.5,104.999436 2.74864084,107.231545 5.49707329,107.231545 L55.5276463,107.231545 C58.2760788,107.231545 60.5247196,104.999436 60.5247196,102.271209 L60.5247196,87.8285906 C60.5247196,85.1003638 58.2760788,82.8682544 55.5276463,82.8682544 M55.4475785,5.84123539 L2.99305832,71.0476117 C1.20543942,72.8195787 2.46966778,75.8531727 4.99643886,75.8531727 L27.7458067,75.8531727 C28.498444,75.8531727 29.219897,75.5561716 29.7517157,75.0274261 L59.3801715,37.4781243 C60.104153,36.8991813 60.5247196,36.0257472 60.5247196,35.1021157 L60.5247196,8.16119025 C60.5247196,5.55260055 57.4433737,4.1454011 55.4475785,5.84123539" id="Fill-1"/>
                <path d="M364.502927,1.5 L349.952501,1.5 C347.204912,1.5 344.956271,3.73210947 344.956271,6.46033622 L344.956271,145.539664 C344.956271,148.267891 347.204912,150.5 349.952501,150.5 L364.502927,150.5 C367.251359,150.5 369.5,148.267891 369.5,145.539664 L369.5,6.46033622 C369.5,3.73210947 367.251359,1.5 364.502927,1.5 M333.527646,82.8682544 L283.497073,82.8682544 C280.748641,82.8682544 278.5,85.1003638 278.5,87.8285906 L278.5,102.271209 C278.5,104.999436 280.748641,107.231545 283.497073,107.231545 L333.527646,107.231545 C336.276079,107.231545 338.52472,104.999436 338.52472,102.271209 L338.52472,87.8285906 C338.52472,85.1003638 336.276079,82.8682544 333.527646,82.8682544 M333.447579,5.84123539 L280.993058,71.0476117 C279.205439,72.8195787 280.469668,75.8531727 282.996439,75.8531727 L305.745807,75.8531727 C306.498444,75.8531727 307.219897,75.5561716 307.751716,75.0274261 L337.380172,37.4781243 C338.104153,36.8991813 338.52472,36.0257472 338.52472,35.1021157 L338.52472,8.16119025 C338.52472,5.55260055 335.443374,4.1454011 333.447579,5.84123539" id="Fill-1-Copy"/>
            </g>
        </g>
    </g>
</symbol><symbol id="arrow-down" viewBox="0 0 16 17">
  <path fill="none" stroke-linecap="round" stroke-width="1.53" d="M102,27.2 L114.628571,27.2 M108.8,20.4 L115.6,27.2 L108.8,34" transform="rotate(90 67.8 -32.8)"/>
</symbol><symbol id="arrow-left" viewBox="0 0 17 17">
  <path fill="none" stroke-linecap="round" stroke-width="2" d="M23.8,30.6 L36.4285714,30.6 M30.6,23.8 L37.4,30.6 L30.6,37.4" transform="matrix(-1 0 0 1 39.2 -22)"/>
</symbol><symbol id="arrow-long-down" viewBox="0 0 9 29">
<path d="M4.00004 26.7929L4.00004 0H5.00004L5.00004 26.7929L7.64648 24.1464L8.35359 24.8536L4.50004 28.7071L0.646484 24.8536L1.35359 24.1464L4.00004 26.7929Z"/>
</symbol><symbol id="arrow-right" viewBox="0 0 17 17">
  <path fill="none" stroke-linecap="round" stroke-width="2" d="M119.85,30.6 L132.478571,30.6 M126.65,23.8 L133.45,30.6 L126.65,37.4" transform="translate(-118 -22)"/>
</symbol><symbol id="arrow-up" viewBox="0 0 273 380">
  
  <g fill="none" fill-rule="evenodd" transform="translate(.9 -.4)">
    <g transform="translate(96.9 .468)">
      <mask id="arrow-up-b" fill="#fff">
        <use xlink:href="#arrow-up-a"/>
      </mask>
      <path fill="#1D1D1B" d="M31.51477,4.14698 L4.33857,31.32318 C-0.68238,36.34413 -0.68323,44.48543 4.33772,49.50553 L125.99822,171.16603 C131.01917,176.18698 139.15962,176.18698 144.18057,171.16603 L171.35677,143.98898 C176.37772,138.96803 176.37772,130.82758 171.35677,125.80748 L49.69712,4.14698 C44.67617,-0.87397 36.53572,-0.87397 31.51477,4.14698" mask="url(#arrow-up-b)"/>
    </g>
    <g transform="translate(0 53.168)">
      <mask id="arrow-up-d" fill="#fff">
        <use xlink:href="#arrow-up-c"/>
      </mask>
      <path fill="#1D1D1B" d="M94.48345,3.82262 L121.65965,30.99882 C126.6806,36.01977 126.68145,44.16107 121.6605,49.18117 L49.1249,121.71762 C44.10395,126.73772 35.9635,126.73772 30.94255,121.71677 L3.7655,94.54057 C-1.25545,89.51962 -1.25545,81.37917 3.7655,76.35822 L76.3011,3.82262 C81.32205,-1.19833 89.4625,-1.19833 94.48345,3.82262" mask="url(#arrow-up-d)"/>
    </g>
    <g transform="translate(103.7 122.868)">
      <mask id="arrow-up-f" fill="#fff">
        <use xlink:href="#arrow-up-e"/>
      </mask>
      <path fill="#1D1D1B" d="M51.51085,0.111435 L13.07725,0.111435 C5.97635,0.111435 0.22015,5.867635 0.22015,12.967685 L0.22015,243.842985 C0.22015,250.943885 5.97635,256.700085 13.07725,256.700085 L51.51085,256.700085 C58.61175,256.700085 64.3671,250.943885 64.3671,243.842985 L64.3671,12.967685 C64.3671,5.867635 58.61175,0.111435 51.51085,0.111435" mask="url(#arrow-up-f)"/>
    </g>
  </g>
</symbol><symbol id="calendar" viewBox="0 0 17 19">
    <rect fill="none" stroke-linecap="round" stroke-width="2" x="0" y="1.54285714" width="15.0931677" height="13.8857143" rx="2.25"/>
    <line fill="none" stroke-linecap="round" stroke-width="2" x1="10.9006211" y1="0" x2="10.9006211" y2="3.08571429"/>
    <line fill="none" stroke-linecap="round" stroke-width="2" x1="4.19254658" y1="0" x2="4.19254658" y2="3.08571429"/>
    <line fill="none" stroke-linecap="round" stroke-width="2" x1="0" y1="6.17142857" x2="15.0931677" y2="6.17142857"/>          
</symbol><symbol id="check" viewBox="0 0 22 17">
    <polyline points="21.4,0.4 7.1,16.1 0.6,9 "/>
</symbol><symbol id="circle-document" viewBox="0 0 106 106">
  
  <g fill="none" fill-rule="evenodd" transform="translate(1 1)">
    <circle cx="52" cy="52" r="52" stroke="#221E1E" stroke-width="1.8"/>
    <g transform="translate(30 32)">
      <mask id="circle-document-b" fill="#fff">
        <use xlink:href="#circle-document-a"/>
      </mask>
      <path fill="#000" d="M14.0244,26.24925 L36.9744,26.24925 C37.4514,26.24925 37.7994,25.90425 37.7994,25.42575 C37.7994,24.94875 37.4514,24.60075 36.9744,24.60075 L14.0244,24.60075 C13.5474,24.60075 13.1994,24.94875 13.1994,25.42575 C13.1529,25.64025 13.1829,25.78875 13.2879,25.92075 C13.4424,26.12175 13.7334,26.24925 14.0244,26.24925 L14.0244,26.24925 Z M36.9744,18.60075 L14.0244,18.60075 C13.5474,18.60075 13.1994,18.94725 13.1994,19.42575 C13.1994,19.90425 13.5474,20.25075 14.0244,20.25075 L36.9744,20.25075 C37.4514,20.25075 37.7994,19.90425 37.7994,19.42575 C37.7994,18.94725 37.4514,18.60075 36.9744,18.60075 L36.9744,18.60075 Z M14.8479,13.05075 L24.0009,13.05075 L24.0009,7.20075 L14.8479,7.20075 L14.8479,13.05075 Z M14.0244,14.85075 L24.9744,14.85075 C25.4514,14.85075 25.7994,14.50275 25.7994,14.02575 L25.7994,6.37575 C25.7994,5.89725 25.4514,5.55075 24.9744,5.55075 L14.0244,5.55075 C13.5549,5.55075 13.1994,6.05175 13.1994,6.37575 L13.1874,14.09625 C13.1559,14.19225 13.1889,14.32125 13.2834,14.45025 C13.4514,14.68575 13.7574,14.85075 14.0244,14.85075 L14.0244,14.85075 Z M29.3229,8.25075 L36.9744,8.25075 C37.4514,8.25075 37.7994,7.90425 37.7994,7.42575 C37.7994,6.94725 37.4514,6.60075 36.9744,6.60075 L29.3229,6.60075 C28.8459,6.60075 28.4994,6.94725 28.4994,7.42575 C28.4514,7.64025 28.4859,7.78875 28.5894,7.92225 C28.7439,8.12175 29.0319,8.25075 29.3229,8.25075 L29.3229,8.25075 Z M41.5494,35.32575 C41.5494,36.93825 40.2369,38.25075 38.6229,38.25075 L8.1549,38.25075 L8.4474,37.88475 C9.0129,37.17825 9.2994,36.31875 9.2994,35.32575 L9.2994,1.65075 L41.5494,1.65075 L41.5494,35.32575 Z M7.6494,35.32575 C7.6494,36.93825 6.3369,38.25075 4.7244,38.25075 C3.1119,38.25075 1.7994,36.93825 1.7994,35.32575 L1.7994,14.85075 L7.6494,14.85075 L7.6494,35.32575 Z M42.3729,-0.00075 L8.4744,-0.00075 C8.0034,-0.00075 7.6494,0.50025 7.6494,0.82575 L7.6494,13.05075 L0.8229,13.05075 C0.3534,13.05075 -0.0006,13.55175 -0.0006,13.87575 L-0.0006,35.17575 C-0.0006,37.73625 2.1639,39.90075 4.7244,39.90075 L38.6229,39.90075 C41.1834,39.90075 43.3479,37.73625 43.3479,35.17575 L43.3479,0.67575 C43.3479,0.38025 42.8754,-0.00075 42.3729,-0.00075 L42.3729,-0.00075 Z M36.9744,12.15075 L29.3229,12.15075 C28.8459,12.15075 28.4994,12.49725 28.4994,12.97575 L28.4889,13.04775 C28.4559,13.14225 28.4904,13.27125 28.5834,13.40025 C28.7514,13.63575 29.0559,13.80075 29.3229,13.80075 L36.9744,13.80075 C37.4514,13.80075 37.7994,13.45275 37.7994,12.97575 C37.7994,12.49725 37.4514,12.15075 36.9744,12.15075 L36.9744,12.15075 Z M36.9744,30.75075 L14.0244,30.75075 C13.5474,30.75075 13.1994,31.09725 13.1994,31.57575 C13.1994,32.05275 13.5474,32.40075 14.0244,32.40075 L36.9744,32.40075 C37.4514,32.40075 37.7994,32.05275 37.7994,31.57575 C37.7994,31.09725 37.4514,30.75075 36.9744,30.75075 L36.9744,30.75075 Z" mask="url(#circle-document-b)"/>
    </g>
  </g>
</symbol><symbol id="close" viewBox="0 0 29 29">
  <g fill="none" fill-rule="evenodd" stroke-linecap="square" transform="translate(1 1)">
    <line x1=".253" x2="26.097" y1=".678" y2="26.522"/>
    <line x1=".253" x2="26.097" y1="26.522" y2=".678"/>
  </g>
</symbol><symbol id="corner-left" viewBox="0 0 215 176">
  <path fill="#3CEDB7" d="M206.166662,67.0873454 L44.2626655,67.0873454 C41.4973323,67.0873454 39.255999,69.330012 39.255999,72.0940119 L39.255999,167.332676 C39.255999,171.679342 35.6973324,175.236676 31.3506659,175.236676 L8.33333311,175.236676 C3.98399989,175.236676 0.426666643,171.679342 0.426666643,167.332676 L0.426666643,59.1820123 L0.426666643,55.100679 L0.426666643,36.1646795 L0.426666643,5.57534697 C0.426666643,1.36868041 5.41866652,-0.84065287 8.53199977,1.98734706 L34.4933325,25.5700131 C36.3973324,27.3006797 38.8773323,28.2593464 41.4493323,28.2593464 L206.166662,28.2593464 C210.514661,28.2593464 214.071995,31.8166796 214.071995,36.1646795 L214.071995,59.1820123 C214.071995,63.5300122 210.514661,67.0873454 206.166662,67.0873454" transform="matrix(1 0 0 -1 0 175.956)"/>
</symbol><symbol id="corner-right" viewBox="0 0 215 176">
  <path fill="#3CEDB7" d="M213.956661,141.455667 C213.851328,141.969 213.695328,142.465 213.493995,142.937 C213.393995,143.174333 213.281995,143.403667 213.159328,143.627667 C212.916661,144.075667 212.629995,144.498333 212.307328,144.889 C211.984661,145.279667 211.624661,145.639667 211.233995,145.962333 C210.843328,146.285 210.420661,146.571667 209.972667,146.815667 C209.748661,146.937 209.517995,147.049 209.281995,147.150333 C208.809995,147.350333 208.313995,147.506333 207.800661,147.611667 C207.287328,147.717 206.756661,147.773 206.211328,147.773 L183.195329,147.773 L8.37799977,147.773 C4.03133321,147.773 0.47266664,144.215667 0.47266664,139.867667 L0.47266664,116.849001 C0.47266664,112.502334 4.02999988,108.945001 8.37799977,108.945001 L168.300662,108.945001 C172.159329,108.945001 175.288662,105.815668 175.288662,101.955668 L175.288662,8.70100347 C175.288662,4.35167025 178.845996,0.794337 183.195329,0.794337 L206.211328,0.794337 C210.560661,0.794337 214.117995,4.35167025 214.117995,8.70100347 L214.117995,116.849001 L214.117995,139.867667 C214.117995,140.411667 214.061995,140.942333 213.956661,141.455667" transform="matrix(1 0 0 -1 0 148.567)"/>
</symbol><symbol id="download" viewBox="0 0 27 27">
<path d="M0.4,18.3v5.5c0,1.5,1.3,2.7,2.9,2.7h20.3c1.6,0,2.9-1.2,2.9-2.7v-5.5 M21.2,9.8l-7.7,7.3L5.8,9.8 M13.5,16.5
	v-16"/>
</symbol><symbol id="external-link" viewBox="0 0 27 27">
	<path d="M21.8,16.3v6.9c0,1.5-1.2,2.8-2.8,2.8H3.8C2.2,26,1,24.8,1,23.2V7.9c0-1.5,1.2-2.8,2.8-2.8h6.9 M17.7,1H26v8.3
		 M10.7,16.3L25.5,1.5"/>
</symbol><symbol id="external" viewBox="0 0 14 14">
  <path fill-rule="evenodd" d="M411.525236,60.3506832 L407.232178,60.3506832 C407.207128,60.3497723 407.181623,60.3497723 407.15794,60.3506832 C406.758511,60.3707228 406.449262,60.7113969 406.468846,61.1103681 C406.487975,61.5097948 406.82865,61.8208648 407.220336,61.7999143 L409.775403,61.7999143 L403.892829,67.6820072 C403.609995,67.9648395 403.609995,68.425296 403.892829,68.7081284 C404.029464,68.8447624 404.211643,68.9203665 404.405664,68.9203665 C404.59923,68.9203665 404.781409,68.8447624 404.918499,68.7081284 L410.801528,62.82558 L410.801528,65.3769919 C410.795607,65.7764186 411.115788,66.1061619 411.515672,66.1116273 C411.714703,66.1116273 411.891872,66.041944 412.030784,65.9066763 C412.16924,65.7718641 412.247122,65.5905964 412.249855,65.38018 L412.249855,61.0752987 C412.249855,60.675872 411.924664,60.3506832 411.525236,60.3506832 L411.525236,60.3506832 Z M411.535711,68.084622 C411.339869,68.0828002 411.159511,68.1547608 411.020599,68.289573 C410.881687,68.4248406 410.803806,68.6056529 410.801528,68.8160692 L410.801528,71.6512243 L400.948809,71.6512243 L400.948809,61.7999143 L403.781244,61.7999143 C403.97982,61.8076569 404.1579,61.7297755 404.296356,61.5945078 C404.435268,61.4596957 404.51315,61.2788834 404.515883,61.0853185 C404.521348,60.6858919 404.200712,60.3561485 403.784432,60.3506832 L400.236032,60.3506832 C400.211438,60.3497723 400.186388,60.3497723 400.160883,60.3506832 L400.149042,60.3520495 C399.77694,60.3907625 399.49775,60.7022879 399.500014,61.0752987 L399.500014,72.3753845 C399.500014,72.7748111 399.824762,73.1 400.224191,73.1 L411.525236,73.1 C411.924664,73.1 412.249929,72.7748111 412.249929,72.3753845 L412.249929,68.8192574 C412.252587,68.6256925 412.180171,68.4430585 412.044903,68.3041472 C411.91009,68.165236 411.729732,68.0873547 411.535711,68.084622 L411.535711,68.084622 Z" transform="translate(-399 -59.45)"/>
</symbol><symbol id="format-article" viewBox="0 0 18 20"><path fill-rule="evenodd" d="M14 0l4 4.402v12.44c0 .67-.51 1.158-1.18 1.158l-.552-.01v.862c0 .67-.479 1.148-1.148 1.148H1.148C.574 20 0 19.522 0 18.852V2.67c.096-.287.383-.574.67-.67h1.34V.574c0-.287.287-.574.67-.574H14zM2.01 3.254h-.67V18.66H15V18H3.15c-.574 0-1.14-.392-1.14-1.062V3.254zm10.526-2.01H3.254v15.502H16.75V5.742h-3.066c-.574 0-1.148-.479-1.148-1.149V1.244zm2.584 12.153c.382 0 .67.287.765.67 0 .383-.287.67-.67.67H5.36a.654.654 0 01-.67-.67c0-.383.287-.67.67-.67zm-.096-3.35c.383 0 .67.288.67.67 0 .383-.287.67-.67.67h-9.76a.654.654 0 01-.67-.67c0-.382.286-.67.67-.67zm.096-3.157c.287 0 .574.191.574.574 0 .383-.287.67-.67.67h-9.76a.654.654 0 01-.67-.67c0-.287.286-.574.67-.574zm-4.69-3.35c.383 0 .67.288.67.67 0 .383-.287.67-.67.67H5.264a.654.654 0 01-.67-.67c0-.382.287-.67.67-.67zm3.32-2.04v3h2.75l-2.75-3z"/></symbol><symbol id="format-casestudy" viewBox="0 0 22 20"><path fill-rule="nonzero" d="M21 0c.595 0 1 .304 1 1v18c0 .7-.442 1-1 1H5c-.5 0-1-.5-1-1v-.4l-1.1 1c-.3.3-.8.4-1.2.4-.5 0-.9-.1-1.2-.4-.3-.3-.5-.8-.5-1.2 0-.5.2-.9.5-1.2L4 14V.7c.304-.486.304-.7 1-.7zM6.1 13.2l-5 4.8s-.1.2-.1.3c0 .3.218.663.518.663.2 0 .433-.012.533-.112l4.9-4.7L6.1 13.2zM20.75 1.25H5.25V12.5l.35-.3c.2-.2.56-.324.86-.324l-.071.005A4.75 4.75 0 0113.916 6.2H18.5c.4 0 .7.3.8.7 0 .4-.3.7-.7.7l-3.746-.001c.255.582.396 1.225.396 1.901l-.005-.2H18.5c.36 0 .639.243.764.583L19.3 10c0 .4-.3.7-.7.7l-3.503.001a4.735 4.735 0 01-.915 1.8L18.5 12.5c.4 0 .7.3.8.7 0 .4-.3.7-.7.7h-6.309a4.736 4.736 0 01-1.791.35c-.819 0-1.59-.207-2.262-.572-.023.302-.158.742-.338.922l-.4.4-2.25 2.2v1.55h15.5V1.25zM18.5 15.8c.4 0 .7.3.8.7 0 .4-.3.7-.7.7H7.3c-.4 0-.7-.3-.7-.7 0-.4.3-.7.7-.7zm-8-9.8a3.5 3.5 0 100 7 3.5 3.5 0 000-7zm8.1-2.8c.4 0 .7.3.7.7 0 .4-.3.7-.7.7H7.3c-.4 0-.7-.3-.7-.7 0-.4.3-.7.7-.7z"/></symbol><symbol id="format-whitepaper" viewBox="0 0 22 20"><path fill-rule="nonzero" d="M21.33 0c.357.001.67.314.67.671V17.42c0 1.422-1.082 2.58-2.5 2.58h-17C1.082 20 0 18.842 0 17.42V7.214c.009-.305.301-.662.666-.67h3.14V.671c.01-.303.3-.659.665-.671zm-.61 1.341H5.157V17.42c0 .416-.122.826-.371 1.24h14.695c.695 0 1.239-.546 1.239-1.24V1.341zM3.817 7.884H1.341v9.536c0 .694.544 1.24 1.238 1.24s1.238-.546 1.238-1.24V7.884zm14.847 7.383a.672.672 0 010 1.341H7.214a.672.672 0 010-1.341zm0-2.998a.67.67 0 010 1.34H7.214a.67.67 0 110-1.34zm0-2.999a.67.67 0 010 1.34H7.214a.67.67 0 110-1.34zm-5.998-6.543c.356 0 .67.313.67.67v3.817c0 .357-.314.67-.67.67H7.214a.688.688 0 01-.671-.67V3.397c.009-.311.304-.669.671-.67zm5.998 3.271a.672.672 0 010 1.341h-3.817a.671.671 0 010-1.341zm-6.668-1.931H7.884v2.477h4.112V4.067zm6.668-.795a.67.67 0 010 1.34h-3.817a.67.67 0 010-1.34z"/></symbol><symbol id="icon-edifice-intelligent" viewBox="0 0 120 134"><g fill="#1D1D1B"><path d="M38.5 76.5h-6.7c-1.2 0-2.2 1-2.2 2.2v19.6c0 1.2 1 2.2 2.2 2.2h6.7c1.2 0 2.2-1 2.2-2.2V78.7c.1-1.2-.9-2.2-2.2-2.2z"/><path d="M95.6 102.5H89c-1.2 0-2.2 1-2.2 2.2v7.5H70.3V3c0-1.2-1-2.2-2.2-2.2H2.3C1 .8 0 1.8 0 3v95.3c0 1.2 1 2.2 2.2 2.2H9c1.2 0 2.2-1 2.2-2.2V12h48v109.2c0 1.2 1 2.2 2.2 2.2h25.3v7.5c0 1.2 1 2.2 2.2 2.2h6.7c1.2 0 2.2-1 2.2-2.2v-26.2c.1-1.2-.9-2.2-2.2-2.2z"/><path d="M38.5 45.5h-6.7c-1.2 0-2.2 1-2.2 2.2v19.6c0 1.2 1 2.2 2.2 2.2h6.7c1.2 0 2.2-1 2.2-2.2V47.7c.1-1.2-.9-2.2-2.2-2.2zM53.3 45.5h-6.7c-1.2 0-2.2 1-2.2 2.2v19.6c0 1.2 1 2.2 2.2 2.2h6.7c1.2 0 2.2-1 2.2-2.2V47.7c.1-1.2-.9-2.2-2.2-2.2zM23.8 45.5h-6.7c-1.2 0-2.2 1-2.2 2.2v19.6c0 1.2 1 2.2 2.2 2.2h6.7c1.2 0 2.2-1 2.2-2.2V47.7c0-1.2-1-2.2-2.2-2.2zM38.5 17.7h-6.7c-1.2 0-2.2 1-2.2 2.2v19.6c0 1.2 1 2.2 2.2 2.2h6.7c1.2 0 2.2-1 2.2-2.2V19.9c.1-1.2-.9-2.2-2.2-2.2zM53.3 17.7h-6.7c-1.2 0-2.2 1-2.2 2.2v19.6c0 1.2 1 2.2 2.2 2.2h6.7c1.2 0 2.2-1 2.2-2.2V19.9c.1-1.2-.9-2.2-2.2-2.2zM23.8 17.7h-6.7c-1.2 0-2.2 1-2.2 2.2v19.6c0 1.2 1 2.2 2.2 2.2h6.7c1.2 0 2.2-1 2.2-2.2V19.9c0-1.2-1-2.2-2.2-2.2zM118 104.7h-15.3c-1.1 0-1.9.9-1.9 1.9v5.8c0 1.1.9 1.9 1.9 1.9H118c1.1 0 1.9-.9 1.9-1.9v-5.8c.1-1-.8-1.9-1.9-1.9zM118 121.4h-15.3c-1.1 0-1.9.9-1.9 1.9v5.8c0 1.1.9 1.9 1.9 1.9H118c1.1 0 1.9-.9 1.9-1.9v-5.8c.1-1.1-.8-1.9-1.9-1.9z"/></g></symbol><symbol id="icon-infonuagique" viewBox="0 0 120 134"><g fill="#1D1D1B"><path d="M77.4 53.3v-6.7c0-1.2-1-2.2-2.2-2.2H25.4c-1.2 0-2.2 1-2.2 2.2v6.7c0 1.2 1 2.2 2.2 2.2h49.8c1.2 0 2.2-1 2.2-2.2M116.9 70.2v-6.7c0-1.2-1-2.2-2.2-2.2H5.3c-1.2 0-2.2 1-2.2 2.2v6.7c0 1.2 1 2.2 2.2 2.2h109.4c1.2 0 2.2-1 2.2-2.2M77.4 104v-6.7c0-1.2-1-2.2-2.2-2.2H45.8c-1.2 0-2.2 1-2.2 2.2v6.7c0 1.2 1 2.2 2.2 2.2h29.4c1.2.1 2.2-.9 2.2-2.2M97.9 87.1v-6.7c0-1.2-1-2.2-2.2-2.2H25.5c-1.2 0-2.2 1-2.2 2.2v6.7c0 1.2 1 2.2 2.2 2.2h70.2c1.2 0 2.2-1 2.2-2.2M57 36.6v-6.7c0-1.2-1-2.2-2.2-2.2h-8.9c-1.2 0-2.2 1-2.2 2.2v6.7c0 1.2 1 2.2 2.2 2.2h8.9c1.2 0 2.2-1 2.2-2.2"/></g></symbol><symbol id="icon-materiel-financement" viewBox="0 0 120 134"><g fill="#1D1D1B"><path d="M97 57.6h7.8c1.4 0 2.6-1.2 2.6-2.6V24.2c0-1.4-1.2-2.6-2.6-2.6H74.2c-1.4 0-2.6 1.2-2.6 2.6V32c0 1.4 1.2 2.6 2.6 2.6h20.2V55c0 1.5 1.2 2.6 2.6 2.6z"/><path d="M85.3 38.3c-1-1-2.7-1-3.7 0L70.9 49H47h-.1c-.7 0-1.4.2-1.9.8L14.3 80.4c-1 1-1 2.7 0 3.7l5.5 5.5c1 1 2.7 1 3.7 0L51.1 62h24.1c.9 0 1.7-.5 2.2-1.2l13.4-13.4c1-1 1-2.7 0-3.7l-5.5-5.4z"/><path d="M64.2 71.8h-7.7c-1.4 0-2.6 1.1-2.6 2.6v35.2c0 1.4 1.1 2.6 2.6 2.6h7.7c1.4 0 2.6-1.1 2.6-2.6V74.3c0-1.4-1.2-2.5-2.6-2.5zM84.5 71.9h-7.7c-1.4 0-2.6 1.1-2.6 2.6v35.2c0 1.4 1.1 2.6 2.6 2.6h7.7c1.4 0 2.6-1.1 2.6-2.6V74.5c-.1-1.5-1.2-2.6-2.6-2.6zM104.7 65.9H97c-1.4 0-2.6 1.1-2.6 2.6v41c0 1.4 1.1 2.6 2.6 2.6h7.7c1.4 0 2.6-1.1 2.6-2.6v-41c-.1-1.5-1.2-2.6-2.6-2.6zM44 89.1h-7.7c-1.4 0-2.6 1.1-2.6 2.6v17.8c0 1.4 1.1 2.6 2.6 2.6H44c1.4 0 2.6-1.1 2.6-2.6V91.7c0-1.5-1.2-2.6-2.6-2.6zM23.8 97.8h-7.7c-1.4 0-2.6 1.1-2.6 2.6v9.1c0 1.4 1.1 2.6 2.6 2.6h7.7c1.4 0 2.6-1.1 2.6-2.6v-9.1c0-1.5-1.2-2.6-2.6-2.6z"/></g></symbol><symbol id="icon-ressources-humaines" viewBox="0 0 120 134"><g fill="#1D1D1B"><path d="M81.987 78H38.013C36.34 78 35 79.433 35 81.224v9.552C35 92.567 36.34 94 38.013 94h43.974C83.66 94 85 92.567 85 90.776v-9.552C85 79.433 83.66 78 81.987 78zM100.04 54H20.067C18.363 54 17 55.433 17 57.224v9.552C17 68.567 18.363 70 20.067 70h79.86c1.704 0 3.067-1.433 3.067-3.224v-9.552c.113-1.791-1.363-3.224-2.954-3.224zM65.981 102H54.02c-1.677 0-3.019 1.433-3.019 3.224v9.552c0 1.791 1.342 3.224 3.019 3.224H65.98c1.677 0 3.019-1.433 3.019-3.224v-9.552c0-1.791-1.342-3.224-3.019-3.224zM67.549 46.104c7.789-4.17 10.724-13.863 6.555-21.653-4.17-7.789-13.863-10.724-21.653-6.555-7.789 4.17-10.724 13.863-6.555 21.653 4.17 7.789 13.863 10.724 21.653 6.555z"/></g></symbol><symbol id="icon-services-conseils" viewBox="0 0 120 134"><g fill="#1D1D1B"><path d="M81.2 77.3H29V32.5c0-1.5-1.2-2.7-2.7-2.7h-8c-1.5 0-2.7 1.2-2.7 2.7V103c0 1.1 1.3 1.6 2 .8l13.1-13.2h50.5c1.5 0 2.7-1.2 2.7-2.7v-8c0-1.4-1.2-2.6-2.7-2.6z"/><path d="M101.8 29.8H38.3c-1.5 0-2.7 1.2-2.7 2.7v8c0 1.5 1.2 2.7 2.7 2.7h52.8v44.5c0 1.5 1.2 2.7 2.7 2.7h8c1.5 0 2.7-1.2 2.7-2.7V32.5c-.1-1.5-1.3-2.7-2.7-2.7zM49.3 65.5c1.2 0 2.2-1 2.2-2.2v-6.4c0-1.2-1-2.2-2.2-2.2h-6.7c-1.2 0-2.2 1-2.2 2.2v6.4c0 1.2 1 2.2 2.2 2.2h6.7z"/><path d="M64 65.5c1.2 0 2.2-1 2.2-2.2v-6.4c0-1.2-1-2.2-2.2-2.2h-6.7c-1.2 0-2.2 1-2.2 2.2v6.4c0 1.2 1 2.2 2.2 2.2H64zM78.5 65.5c1.2 0 2.2-1 2.2-2.2v-6.4c0-1.2-1-2.2-2.2-2.2h-6.7c-1.2 0-2.2 1-2.2 2.2v6.4c0 1.2 1 2.2 2.2 2.2h6.7z"/></g></symbol><symbol id="icon-services-geres" viewBox="0 0 120 134"><g fill="#1D1D1B"><path d="M34.7 68h7c1.3 0 2.3-1.1 2.3-2.3V29.3c0-1.3-1.1-2.3-2.3-2.3h-7c-1.3 0-2.3 1.1-2.3 2.3v36.4c0 1.3 1 2.3 2.3 2.3zM50.3 64.2h7c1.3 0 2.3-1.1 2.3-2.3V17.8c0-1.3-1.1-2.3-2.3-2.3h-7c-1.3 0-2.3 1.1-2.3 2.3v44.1c-.1 1.2 1 2.3 2.3 2.3z"/><path d="M102.5 70.9l-5-5c-.9-.9-2.4-.9-3.3 0L64.7 95.5H28.5V44.8c0-1.3-1.1-2.3-2.3-2.3h-7c-1.3 0-2.3 1.1-2.3 2.3v72.6c0 1.2 1.4 1.7 2.2.9l11-11.1h38.1c.4 0 .8-.1 1.1-.3.5-.1.9-.3 1.3-.7l32-32c.8-.9.8-2.4-.1-3.3z"/><path d="M65.9 68.2h7c1.3 0 2.3-1.1 2.3-2.3V29.5c0-1.3-1.1-2.3-2.3-2.3h-7c-1.3 0-2.3 1.1-2.3 2.3v36.4c-.1 1.3 1 2.3 2.3 2.3z"/></g></symbol><symbol id="icon-services-techniques" viewBox="0 0 120 134"><g fill="#1D1D1B"><path d="M102.4 55.4h-6V20.3c0-1.3-1-2.3-2.3-2.3H25.5c-1.3 0-2.3 1-2.3 2.3v35.1h-4.8c-1.3 0-2.3 1-2.3 2.3V85c0 1.3 1 2.3 2.3 2.3h14.1c1.3 0 2.3-1 2.3-2.3V29.6h50v74.6H57.7c-1.3 0-2.3 1-2.3 2.3v7c0 1.3 1 2.3 2.3 2.3h36.4c1.3 0 2.3-1 2.3-2.3V87.4h6c1.3 0 2.3-1 2.3-2.3V57.8c0-1.3-1-2.4-2.3-2.4z"/><path d="M55.4 57c0-1.3-1-2.3-2.3-2.3h-7c-1.3 0-2.3 1-2.3 2.3v6.6c0 1.3 1 2.3 2.3 2.3h7c1.3 0 2.3-1 2.3-2.3V57zM74.9 65.9c1.3 0 2.3-1 2.3-2.3V57c0-1.3-1-2.3-2.3-2.3h-7c-1.3 0-2.3 1-2.3 2.3v6.6c0 1.3 1 2.3 2.3 2.3h7z"/></g></symbol><symbol id="logo-en" viewBox="0 0 212 40">
  <g fill="#1D1D1B" fill-rule="evenodd">
    <path d="M2,0 C0.8954305,0 0,0.8954305 0,2 L0,38 C0,39.1045695 0.8954305,40 2,40 L8,40 C9.1045695,40 10,39.1045695 10,38 L10,2 C10,0.8954305 9.1045695,0 8,0 L2,0 Z M54,0 C52.8954305,0 52,0.8954305 52,2 L52,38 C52,39.1045695 52.8954305,40 54,40 L60,40 C61.1045695,40 62,39.1045695 62,38 L62,2 C62,0.8954305 61.1045695,0 60,0 L54,0 Z M28,20 C26.8954305,20 26,20.8954305 26,22 L26,38 C26,39.1045695 26.8954305,40 28,40 L34,40 C35.1045695,40 36,39.1045695 36,38 L36,22 C36,20.8954305 35.1045695,20 34,20 L28,20 Z M41,2 C41,0.8954305 40.1045695,0 39,0 L23,0 C21.8954305,0 21,0.8954305 21,2 L21,8 C21,9.1045695 21.8954305,10 23,10 L39,10 C40.1045695,10 41,9.1045695 41,8 L41,2 Z"/>
    <path fill-rule="nonzero" d="M15 15.26L13.15 15.26C13.0726801 15.26 13.01 15.1973199 13.01 15.12L13.01 1.29C13.01 1.21268014 13.0726801 1.15 13.15 1.15L15 1.15C15.0773199 1.15 15.14 1.21268014 15.14 1.29L15.14 15.12C15.14 15.1973199 15.0773199 15.26 15 15.26M50 15.2600004L48.13 15.2600004C48.0526801 15.2600004 47.99 15.1973199 47.99 15.12L47.99 1.29C47.99 1.21268014 48.0526801 1.14999962 48.13 1.14999962L50 1.14999962C50.0790896 1.14982406 50.1447275 1.21108617 50.15 1.29L50.15 15.12C50.1447275 15.1989138 50.0790896 15.2601759 50 15.2600004M2.45 15.26L.58 15.26C.502680135 15.26.44 15.1973199.44 15.12L.44 1.29C.44 1.21268014.502680135 1.15.58 1.15L2.45 1.15C2.52731986 1.15 2.59 1.21268014 2.59 1.29L2.59 15.12C2.59 15.1973199 2.52731986 15.26 2.45 15.26M20.6 15.26C20.5353579 15.255082 20.4800722 15.2116433 20.46 15.15L18.29 5.76 18.29 8.24 18.29 15.12C18.29 15.1973199 18.2273199 15.26 18.15 15.26L16.52 15.26C16.4426801 15.26 16.38 15.1973199 16.38 15.12L16.38 1.29C16.38 1.21268014 16.4426801 1.15 16.52 1.15L18.78 1.15C18.8483929 1.14394214 18.9097046 1.19211558 18.92 1.26L20.92 9.86 20.92 7.5 20.92 1.29C20.9252725 1.21108617 20.9909104 1.14982406 21.07 1.15L22.72 1.15C22.7973199 1.15 22.86 1.21268014 22.86 1.29L22.86 15.12C22.86 15.1973199 22.7973199 15.26 22.72 15.26L20.6 15.26zM69.08 15.2600004C69.0142653 15.2579886 68.9575067 15.2133926 68.94 15.15L66.77 5.76 66.77 8.24 66.77 15.12C66.77 15.1973199 66.7073199 15.2600004 66.63 15.2600004L65 15.2600004C64.9209104 15.2601759 64.8552725 15.1989138 64.85 15.12L64.85 1.29C64.8552725 1.21108617 64.9209104 1.14982406 65 1.15L67.26 1.15C67.3283929 1.14394214 67.3897046 1.19211558 67.4 1.26L69.4 9.86 69.4 7.5 69.4 1.29C69.4 1.21268014 69.4626801 1.15 69.54 1.15L71.19 1.15C71.2690896 1.14982406 71.3347275 1.21108617 71.34 1.29L71.34 15.12C71.3347275 15.1989138 71.2690896 15.2601759 71.19 15.2600004L69.08 15.2600004zM25.75 15.12L25.75 3.24C25.75 3.16268014 25.6873199 3.1 25.61 3.1L24 3.1C23.9226801 3.1 23.86 3.03731986 23.86 2.96L23.86 1.29C23.86 1.21268014 23.9226801 1.14999962 24 1.14999962L29.74 1.14999962C29.8190896 1.14982406 29.8847275 1.21108617 29.89 1.29L29.89 3C29.8847275 3.07891383 29.8190896 3.14017594 29.74 3.14L28.09 3.14C28.0126801 3.14 27.95 3.20268014 27.95 3.28L27.95 15.12C27.95 15.1973199 27.8873199 15.2600004 27.81 15.2600004L25.9 15.2600004C25.8209104 15.2601759 25.7552725 15.1989138 25.75 15.12M5.53 15.12L5.53 3.24C5.52472754 3.16108617 5.45908957 3.09982406 5.38 3.1L3.73 3.1C3.66594068 3.10265623 3.60826334 3.06145813 3.59 3L3.59 1.29C3.59 1.21268014 3.65268014 1.15 3.73 1.15L9.48 1.15C9.55731986 1.15 9.62 1.21268014 9.62 1.29L9.62 3C9.62 3.07731986 9.55731986 3.14 9.48 3.14L7.83 3.14C7.75091043 3.13982406 7.68527246 3.20108617 7.68 3.28L7.68 15.12C7.68 15.1973199 7.61731986 15.26 7.54 15.26L5.67 15.26C5.59268014 15.26 5.53 15.1973199 5.53 15.12M35.64 1.29L35.64 3C35.6347275 3.07891383 35.5690896 3.14017594 35.49 3.14L33.14 3.14C33.0609104 3.13982406 32.9952725 3.20108617 32.99 3.28L32.99 7C32.9952725 7.07891383 33.0609104 7.14017594 33.14 7.14L35.39 7.14C35.4728427 7.14 35.54 7.20715729 35.54 7.29L35.54 8.96C35.5347275 9.03891383 35.4690896 9.10017594 35.39 9.1L33.14 9.1C33.0609104 9.09982406 32.9952725 9.16108617 32.99 9.24L32.99 13.24C32.9952725 13.3189138 33.0609104 13.3801759 33.14 13.38L35.53 13.38C35.6128427 13.38 35.68 13.4471573 35.68 13.53L35.68 15.2C35.6747275 15.2789138 35.6090896 15.3401759 35.53 15.3400004L31 15.3400004C30.9226801 15.3400004 30.8599996 15.2773199 30.8599996 15.2L30.8599996 1.29C30.8598241 1.21091043 30.9210862 1.14527246 31 1.14L35.51 1.14C35.5928427 1.14 35.66 1.20715729 35.66 1.29M63.69 1.29L63.69 3C63.69 3.07731986 63.6273199 3.14 63.55 3.14L61.19 3.14C61.1126801 3.14 61.05 3.20268014 61.05 3.28L61.05 7C61.05 7.07731986 61.1126801 7.14 61.19 7.14L63.45 7.14C63.5289138 7.14527246 63.5901759 7.21091043 63.59 7.29L63.59 8.96C63.59 9.03731986 63.5273199 9.1 63.45 9.1L61.19 9.1C61.1126801 9.1 61.05 9.16268014 61.05 9.24L61.05 13.24C61.05 13.3173199 61.1126801 13.38 61.19 13.38L63.59 13.38C63.6689138 13.3852725 63.7301759 13.4509104 63.7300004 13.53L63.7300004 15.2C63.7300004 15.2773199 63.6673199 15.34 63.59 15.34L59 15.34C58.9226801 15.34 58.8599996 15.2773199 58.8599996 15.2L58.8599996 1.29C58.8598241 1.21091043 58.9210862 1.14527246 59 1.14L63.52 1.14C63.5989138 1.14527246 63.6601759 1.21091043 63.66 1.29M84.78 1.29L84.78 3C84.78 3.07731986 84.7173199 3.14 84.64 3.14L82.28 3.14C82.2026801 3.14 82.14 3.20268014 82.14 3.28L82.14 7C82.14 7.07731986 82.2026801 7.14 82.28 7.14L84.54 7.14C84.6189138 7.14527246 84.6801759 7.21091043 84.68 7.29L84.68 8.96C84.68 9.03731986 84.6173199 9.1 84.54 9.1L82.28 9.1C82.2428697 9.1 82.2072601 9.11474996 82.1810051 9.14100505 82.15475 9.16726014 82.14 9.20286969 82.14 9.24L82.14 13.24C82.14 13.3173199 82.2026801 13.38 82.28 13.38L84.68 13.38C84.7589138 13.3852725 84.8201759 13.4509104 84.8200004 13.53L84.8200004 15.2C84.8200004 15.2773199 84.7573199 15.34 84.68 15.34L80.12 15.34C80.0426801 15.34 79.9799996 15.2773199 79.9799996 15.2L79.9799996 1.29C79.9798241 1.21091043 80.0410862 1.14527246 80.12 1.14L84.64 1.14C84.7189138 1.14527246 84.7801759 1.21091043 84.78 1.29M39 1.29L39 13.16C39 13.2373199 39.0626801 13.3 39.14 13.3L41.23 13.3C41.3128427 13.3 41.38 13.3671573 41.38 13.45L41.38 15.12C41.3747275 15.1989138 41.3090896 15.2601759 41.23 15.2600004L36.98 15.2600004C36.9026801 15.2600004 36.8399996 15.1973199 36.8399996 15.12L36.8399996 1.29C36.8398241 1.21091043 36.9010862 1.14527246 36.98 1.14L38.86 1.14C38.9389138 1.14527246 39.0001759 1.21091043 39 1.29M44.54 1.29L44.54 13.16C44.5452725 13.2389138 44.6109104 13.3001759 44.69 13.3L46.78 13.3C46.8589138 13.3052725 46.9201759 13.3709104 46.9200004 13.45L46.9200004 15.12C46.9200004 15.1973199 46.8573199 15.26 46.78 15.26L42.53 15.26C42.4526801 15.26 42.3899996 15.1973199 42.3899996 15.12L42.3899996 1.29C42.3898241 1.21091043 42.4510862 1.14527246 42.53 1.14L44.4 1.14C44.4789138 1.14527246 44.5401759 1.21091043 44.54 1.29M87.82 15.26L86.06 15.26C85.9826801 15.26 85.92 15.1973199 85.92 15.12L85.92 12.72C85.92 12.6426801 85.9826801 12.58 86.06 12.58L87.82 12.58C87.8973199 12.58 87.96 12.6426801 87.96 12.72L87.96 15.12C87.96 15.1973199 87.8973199 15.26 87.82 15.26M57.72 12.76C57.8219894 13.4831736 57.5774974 14.212157 57.0600933 14.7275937 56.5426893 15.2430304 55.8127798 15.4847436 55.09 15.38L53.94 15.38C53.2178782 15.485623 52.488313 15.2437878 51.9722626 14.7277374 51.4562122 14.211687 51.214377 13.4821218 51.32 12.76L51.32 3.64C51.2072714 2.91471144 51.4459416 2.17901541 51.9629785 1.65803166 52.4800154 1.1370479 53.2138752.892790078 53.94 1L55.07 1C55.7894765.894256052 56.5165795 1.13499625 57.0307916 1.64920837 57.5450038 2.16342049 57.7857439 2.89052351 57.68 3.61L57.68 5.76C57.6747275 5.83891383 57.6090896 5.90017594 57.53 5.9L55.7 5.9C55.6226801 5.9 55.56 5.83731986 55.56 5.76L55.56 3.76C55.56 3.19 55.3 2.93 54.75 2.93L54.31 2.93C54.080126 2.89111598 53.8456528 2.96594387 53.6807984 3.13079836 53.5159439 3.29565285 53.441116 3.53012604 53.48 3.76L53.48 12.67C53.48 13.23 53.74 13.49 54.31 13.49L54.79 13.49C55.36 13.49 55.62 13.23 55.62 12.67L55.62 9.55C55.6147275 9.47108617 55.5490896 9.40982406 55.47 9.41L54.63 9.41C54.5526801 9.41 54.49 9.34731986 54.49 9.27L54.49 7.7C54.49 7.62268014 54.5526801 7.56 54.63 7.56L57.57 7.56C57.6490896 7.55982406 57.7147275 7.62108617 57.72 7.7L57.72 12.76zM76.66 3.75C76.66 3.18 76.4 2.92 75.85 2.92L75.49 2.92C75.260126 2.88111598 75.0256528 2.95594387 74.8607984 3.12079836 74.6959439 3.28565285 74.621116 3.52012604 74.66 3.75L74.66 12.66C74.6257411 12.888932 74.7020911 13.1205451 74.865773 13.284227 75.0294549 13.4479089 75.261068 13.5242589 75.49 13.49L75.89 13.49C76.44 13.49 76.7 13.22 76.7 12.66L76.7 9.61C76.7048673 9.53478838 76.7647884 9.47486727 76.84 9.47L78.68 9.47C78.7552116 9.47486727 78.8151327 9.53478838 78.82 9.61L78.82 12.76C78.925623 13.4821218 78.6837878 14.211687 78.1677374 14.7277374 77.651687 15.2437878 76.9221218 15.485623 76.2 15.38L75.13 15.38C74.4078782 15.485623 73.678313 15.2437878 73.1622626 14.7277374 72.6462122 14.211687 72.404377 13.4821218 72.51 12.76L72.51 3.65C72.393684 2.92313755 72.6307534 2.18435804 73.1482906 1.66089486 73.6658278 1.13743168 74.4018604.891966738 75.13 1L76.18 1C76.8968312.894133833 77.621473 1.13377863 78.1338472 1.64615284 78.6462214 2.15852704 78.8858662 2.88316877 78.78 3.6L78.78 6.37C78.7747275 6.44891383 78.7090896 6.51017594 78.63 6.51L76.8 6.51C76.7247884 6.50513273 76.6648673 6.44521162 76.66 6.37L76.66 3.75zM46 33.3000004L44.13 33.3000004C44.0526801 33.3000004 43.99 33.2373199 43.99 33.16L43.99 19.33C43.99 19.2526801 44.0526801 19.1899996 44.13 19.1899996L46 19.1899996C46.0790896 19.1898241 46.1447275 19.2510862 46.15 19.33L46.15 33.16C46.1447275 33.2389138 46.0790896 33.3001759 46 33.3000004M81 33.3L79.12 33.3C79.0426801 33.3 78.98 33.2373199 78.98 33.16L78.98 19.33C78.98 19.2526801 79.0426801 19.19 79.12 19.19L81 19.19C81.0773199 19.19 81.14 19.2526801 81.14 19.33L81.14 33.16C81.14 33.2373199 81.0773199 33.3 81 33.3M51.6 33.3C51.5316071 33.3060579 51.4702954 33.2578844 51.46 33.19L49.29 23.8 49.29 26.28 49.29 33.16C49.2847275 33.2389138 49.2190896 33.3001759 49.14 33.3L47.49 33.3C47.4126801 33.3 47.35 33.2373199 47.35 33.16L47.35 19.33C47.35 19.2526801 47.4126801 19.19 47.49 19.19L49.76 19.19C49.8257347 19.1920114 49.8824933 19.2366074 49.9 19.3L51.9 27.9 51.9 25.54 51.9 19.33C51.9 19.2526801 51.9626801 19.19 52.04 19.19L53.69 19.19C53.7673199 19.19 53.83 19.2526801 53.83 19.33L53.83 33.16C53.83 33.2373199 53.7673199 33.3 53.69 33.3L51.6 33.3zM100.07 33.3000093C100.005339 33.3007691 99.9499439 33.253896 99.94 33.19L97.76 23.8 97.76 26.28 97.76 33.16C97.76 33.2373199 97.6973199 33.3000093 97.62 33.3000093L96 33.3000093C95.9226801 33.3000093 95.86 33.2373199 95.86 33.16L95.86 19.33C95.86 19.2526801 95.9226801 19.19 96 19.19L98.26 19.19C98.3283929 19.1839421 98.3897046 19.2321156 98.4 19.3L100.4 27.9 100.4 25.54 100.4 19.33C100.405272 19.2510862 100.47091 19.1898241 100.55 19.19L102.2 19.19C102.27732 19.19 102.34 19.2526801 102.34 19.33L102.34 33.16C102.34 33.2373199 102.27732 33.3000093 102.2 33.3000093L100.07 33.3000093zM56.75 33.16L56.75 21.29C56.75 21.2502175 56.7341965 21.2120644 56.706066 21.183934 56.6779356 21.1558035 56.6397825 21.14 56.6 21.14L55 21.14C54.9226801 21.14 54.86 21.0773199 54.86 21L54.86 19.33C54.86 19.2526801 54.9226801 19.19 55 19.19L60.75 19.19C60.8273199 19.19 60.89 19.2526801 60.89 19.33L60.89 21C60.89 21.0773199 60.8273199 21.14 60.75 21.14L59.1 21.14C59.0210862 21.1452725 58.9598241 21.2109104 58.96 21.29L58.96 33.16C58.9547275 33.2389138 58.8890896 33.3001759 58.81 33.3000004L56.94 33.3000004C56.8626801 33.3000004 56.8 33.2373199 56.8 33.16M66.63 19.33L66.63 21C66.63 21.0773199 66.5673199 21.14 66.49 21.14L64.13 21.14C64.0510862 21.1452725 63.9898241 21.2109104 63.99 21.29L63.99 25C63.9898241 25.0790896 64.0510862 25.1447275 64.13 25.15L66.39 25.15C66.4673199 25.15 66.53 25.2126801 66.53 25.29L66.53 27C66.53 27.0773199 66.4673199 27.14 66.39 27.14L64.13 27.14C64.0526801 27.14 63.99 27.2026801 63.99 27.28L63.99 31.28C63.9898241 31.3590896 64.0510862 31.4247275 64.13 31.43L66.53 31.43C66.6073199 31.43 66.67 31.4926801 66.67 31.57L66.67 33.24C66.67 33.3173199 66.6073199 33.38 66.53 33.38L62 33.38C61.9226801 33.38 61.86 33.3173199 61.86 33.24L61.86 19.33C61.86 19.2526801 61.9226801 19.19 62 19.19L66.52 19.19C66.5973199 19.19 66.66 19.2526801 66.66 19.33M94.68 19.33L94.68 21C94.68 21.0773199 94.6173199 21.14 94.54 21.14L92.18 21.14C92.1010862 21.1452725 92.0398241 21.2109104 92.04 21.29L92.04 25C92.0398241 25.0790896 92.1010862 25.1447275 92.18 25.15L94.44 25.15C94.5173199 25.15 94.58 25.2126801 94.58 25.29L94.58 27C94.58 27.0773199 94.5173199 27.14 94.44 27.14L92.18 27.14C92.1047884 27.1448673 92.0448673 27.2047884 92.04 27.28L92.04 31.28C92.0398241 31.3590896 92.1010862 31.4247275 92.18 31.43L94.58 31.43C94.6573199 31.43 94.72 31.4926801 94.72 31.57L94.72 33.24C94.72 33.3173199 94.6573199 33.3800004 94.58 33.3800004L90 33.3800004C89.9209104 33.3801759 89.8552725 33.3189138 89.85 33.24L89.85 19.33C89.8552725 19.2510862 89.9209104 19.1898241 90 19.1899996L94.51 19.1899996C94.5873199 19.1899996 94.65 19.2526801 94.65 19.33M115.78 19.33L115.78 21C115.774728 21.0789138 115.70909 21.1401759 115.63 21.14L113.28 21.14C113.197157 21.14 113.13 21.2071573 113.13 21.29L113.13 25C113.13 25.0828427 113.197157 25.15 113.28 25.15L115.53 25.15C115.60909 25.1498241 115.674728 25.2110862 115.68 25.29L115.68 27C115.674728 27.0789138 115.60909 27.1401759 115.53 27.14L113.28 27.14C113.20091 27.1398241 113.135272 27.2010862 113.13 27.28L113.13 31.28C113.13 31.3628427 113.197157 31.43 113.28 31.43L115.67 31.43C115.74909 31.4298241 115.814728 31.4910862 115.82 31.57L115.82 33.24C115.814728 33.3189138 115.74909 33.3801759 115.67 33.3800004L111.12 33.3800004C111.04268 33.3800004 110.98 33.3173199 110.98 33.24L110.98 19.33C110.98 19.2526801 111.04268 19.1899996 111.12 19.1899996L115.63 19.1899996C115.70909 19.1898241 115.774728 19.2510862 115.78 19.33M70 19.33L70 31.2C70 31.2397825 70.0158035 31.2779356 70.043934 31.306066 70.0720644 31.3341965 70.1102175 31.35 70.15 31.35L72.24 31.35C72.3173199 31.35 72.38 31.4126801 72.38 31.49L72.38 33.16C72.38 33.2373199 72.3173199 33.3000004 72.24 33.3000004L67.99 33.3000004C67.9109104 33.3001759 67.8452725 33.2389138 67.84 33.16L67.84 19.33C67.8452725 19.2510862 67.9109104 19.1898241 67.99 19.1899996L69.86 19.1899996C69.9373199 19.1899996 70 19.2526801 70 19.33M75.54 19.33L75.54 31.2C75.5398241 31.2790896 75.6010862 31.3447275 75.68 31.35L77.77 31.35C77.8490896 31.3498241 77.9147275 31.4110862 77.92 31.49L77.92 33.16C77.9147275 33.2389138 77.8490896 33.3001759 77.77 33.3000004L73.52 33.3000004C73.4426801 33.3000004 73.38 33.2373199 73.38 33.16L73.38 19.33C73.38 19.2526801 73.4426801 19.19 73.52 19.19L75.4 19.19C75.4773199 19.19 75.54 19.2526801 75.54 19.33M88.71 30.8C88.815623 31.5221218 88.5737878 32.251687 88.0577374 32.7677374 87.541687 33.2837878 86.8121218 33.525623 86.09 33.42L84.94 33.42C84.2178782 33.525623 83.488313 33.2837878 82.9722626 32.7677374 82.4562122 32.251687 82.214377 31.5221218 82.32 30.8L82.32 21.69C82.214377 20.9678782 82.4562122 20.238313 82.9722626 19.7222626 83.488313 19.2062122 84.2178782 18.964377 84.94 19.07L86.07 19.07C86.7868312 18.9641338 87.511473 19.2037786 88.0238472 19.7161528 88.5362214 20.228527 88.7758662 20.9531688 88.67 21.67L88.67 23.8C88.67 23.8773199 88.6073199 23.94 88.53 23.94L86.69 23.94C86.6126801 23.94 86.55 23.8773199 86.55 23.8L86.55 21.8C86.55 21.23 86.29 20.97 85.75 20.97L85.3 20.97C85.070126 20.931116 84.8356528 21.0059439 84.6707984 21.1707984 84.5059439 21.3356528 84.431116 21.570126 84.47 21.8L84.47 30.7C84.4357411 30.928932 84.5120911 31.1605451 84.675773 31.324227 84.8394549 31.4879089 85.071068 31.5642589 85.3 31.53L85.78 31.53C86.009874 31.568884 86.2443472 31.4940561 86.4092016 31.3292016 86.5740561 31.1643472 86.648884 30.929874 86.61 30.7L86.61 27.6C86.6101759 27.5209104 86.5489138 27.4552725 86.47 27.45L85.63 27.45C85.5509104 27.4501759 85.4852725 27.3889138 85.48 27.31L85.48 25.74C85.4852725 25.6610862 85.5509104 25.5998241 85.63 25.6L88.57 25.6C88.6473199 25.6 88.71 25.6626801 88.71 25.74L88.71 30.8zM107.65 21.79C107.65 21.22 107.39 20.96 106.85 20.96L106.49 20.96C106.260126 20.921116 106.025653 20.9959439 105.860798 21.1607984 105.695944 21.3256528 105.621116 21.560126 105.66 21.79L105.66 30.7C105.621116 30.929874 105.695944 31.1643472 105.860798 31.3292016 106.025653 31.4940561 106.260126 31.568884 106.49 31.53L106.89 31.53C107.116712 31.561652 107.344965 31.4836128 107.504843 31.3197869 107.664722 31.155961 107.737171 30.9258723 107.7 30.7L107.7 27.7C107.699824 27.6209104 107.761086 27.5552725 107.84 27.55L109.67 27.55C109.748914 27.5552725 109.810176 27.6209104 109.81 27.7L109.81 30.8C109.915623 31.5221218 109.673788 32.251687 109.157737 32.7677374 108.641687 33.2837878 107.912122 33.525623 107.19 33.42L106.12 33.42C105.397878 33.525623 104.668313 33.2837878 104.152263 32.7677374 103.636212 32.251687 103.394377 31.5221218 103.5 30.8L103.5 21.69C103.394377 20.9678782 103.636212 20.238313 104.152263 19.7222626 104.668313 19.2062122 105.397878 18.964377 106.12 19.07L107.12 19.07C107.83777 18.9596424 108.56518 19.1978123 109.078684 19.7113163 109.592188 20.2248204 109.830358 20.9522299 109.72 21.67L109.72 24.41C109.72 24.4873199 109.65732 24.55 109.58 24.55L107.8 24.55C107.72091 24.5501759 107.655272 24.4889138 107.65 24.41L107.65 21.79zM118.77 33.3L117 33.3C116.92268 33.3 116.86 33.2373199 116.86 33.16L116.86 30.76C116.86 30.6826801 116.92268 30.62 117 30.62L118.76 30.62C118.83732 30.62 118.9 30.6826801 118.9 30.76L118.9 33.16C118.9 33.2373199 118.83732 33.3 118.76 33.3M4.67 25L4.67 19.33C4.67 19.2526801 4.73268014 19.19 4.81 19.19L6.69 19.19C6.76731986 19.19 6.83 19.2526801 6.83 19.33L6.83 33.16C6.83 33.2373199 6.76731986 33.3 6.69 33.3L4.81 33.3C4.73268014 33.3 4.67 33.2373199 4.67 33.16L4.67 27.23C4.67 27.1526801 4.60731986 27.09 4.53 27.09L2.74 27.09C2.66091043 27.0898241 2.59527246 27.1510862 2.59 27.23L2.59 33.16C2.59 33.2373199 2.52731986 33.3 2.45 33.3L.58 33.3C.502680135 33.3.44 33.2373199.44 33.16L.44 19.33C.44 19.2526801.502680135 19.19.58 19.19L2.45 19.19C2.52731986 19.19 2.59 19.2526801 2.59 19.33L2.59 25C2.59527246 25.0789138 2.66091043 25.1401759 2.74 25.14L4.53 25.14C4.60731986 25.14 4.67 25.0773199 4.67 25M24.72 19.33L24.72 33.16C24.72 33.2373199 24.6573199 33.3000075 24.58 33.3000075L22.75 33.3000075C22.6726801 33.3000075 22.61 33.2373199 22.61 33.16L22.61 22.57 21.09 33.18C21.0799834 33.2494232 21.0201384 33.3007189 20.95 33.3000075L19.08 33.3000075C19.0098616 33.3007189 18.9500166 33.2494232 18.94 33.18L17.4 22.43 17.4 33.16C17.4 33.2373199 17.3373199 33.3000075 17.26 33.3000075L15.69 33.3000075C15.6126801 33.3000075 15.55 33.2373199 15.55 33.16L15.55 19.33C15.55 19.2526801 15.6126801 19.1899925 15.69 19.1899925L18.69 19.1899925C18.7601384 19.1892811 18.8199834 19.2405768 18.83 19.31L20.17 29.45 21.54 19.31C21.5500166 19.2405768 21.6098616 19.1892811 21.68 19.1899925L24.62 19.1899925C24.6973199 19.1899925 24.76 19.2526801 24.76 19.33M32.49 33.3L30.65 33.3C30.5798616 33.3007189 30.5200166 33.2494232 30.51 33.1799925L30.26 31.1799925C30.2499197 31.1050499 30.1856219 31.0493252 30.11 31.05L28.11 31.05C28.0382032 31.0541685 27.9794681 31.1087082 27.97 31.1799925L27.73 33.1799925C27.7301075 33.2162828 27.7150471 33.2509596 27.6884592 33.2756484 27.6618713 33.3003372 27.6261754 33.3127912 27.59 33.31L25.89 33.31C25.8491297 33.3103856 25.810117 33.2929577 25.7832023 33.262198 25.7562876 33.2314384 25.7441589 33.1904529 25.75 33.15L27.75 19.3C27.7600166 19.2305768 27.8198616 19.1792811 27.89 19.1799925L30.51 19.1799925C30.5801384 19.1792811 30.6399834 19.2305768 30.65 19.3L32.65 33.15C32.6527719 33.1914849 32.6382008 33.2322593 32.6097643 33.2625915 32.5813278 33.2929238 32.5415773 33.3100925 32.5 33.31M28.42 29.1800308L29.85 29.1800308C29.8955714 29.1809228 29.93909 29.1610745 29.9682701 29.1260584 29.9974501 29.0910423 30.0091255 29.0446579 30 29L29.13 22 28.28 29C28.2772281 29.0414849 28.2917992 29.0822593 28.3202357 29.1125915 28.3486722 29.1429238 28.3884227 29.1600925 28.43 29.16M14.33 30.8C14.435623 31.5221218 14.1937878 32.251687 13.6777374 32.7677374 13.161687 33.2837878 12.4321218 33.525623 11.71 33.42L10.71 33.42C9.97383424 33.5583407 9.21629058 33.3311411 8.67776434 32.8104995 8.13923811 32.2898579 7.88659217 31.5404167 8 30.8L8 19.33C8.00527246 19.2510862 8.07091043 19.1898241 8.15 19.1899996L10.02 19.1899996C10.0973199 19.1899996 10.16 19.2526801 10.16 19.33L10.16 30.7C10.121116 30.929874 10.1959439 31.1643472 10.3607984 31.3292016 10.5256528 31.4940561 10.760126 31.568884 10.99 31.53L11.33 31.53C11.5567116 31.561652 11.7849651 31.4836128 11.9448434 31.3197869 12.1047216 31.155961 12.1771713 30.9258723 12.14 30.7L12.14 19.33C12.14 19.2526801 12.2026801 19.1899996 12.28 19.1899996L14.15 19.1899996C14.2273199 19.1899996 14.29 19.2526801 14.29 19.33L14.33 30.8zM37.9 33.3C37.8342653 33.2979886 37.7775067 33.2533926 37.76 33.19L35.59 23.8 35.59 26.28 35.59 33.16C35.59 33.2373199 35.5273199 33.3 35.45 33.3L33.8 33.3C33.7226801 33.3 33.66 33.2373199 33.66 33.16L33.66 19.33C33.66 19.2526801 33.7226801 19.19 33.8 19.19L36.06 19.19C36.1283929 19.1839421 36.1897046 19.2321156 36.2 19.3L38.2 27.9 38.2 25.54 38.2 19.33C38.2052725 19.2510862 38.2709104 19.1898241 38.35 19.19L40 19.19C40.0773199 19.19 40.14 19.2526801 40.14 19.33L40.14 33.16C40.14 33.2373199 40.0773199 33.3 40 33.3L37.9 33.3z" transform="translate(84 3)"/>
  </g>
</symbol><symbol id="logo-fr" viewBox="0 0 210 40"><g fill="#1D1D1B" fill-rule="evenodd"><path d="M85.17 18c-.093 0-.17-.082-.17-.183V4.183c0-.101.077-.183.17-.183h1.66c.094 0 .17.082.17.183v13.634c0 .101-.076.183-.17.183h-1.66zM94.828 4c.095 0 .172.082.172.183v13.634c0 .101-.077.183-.172.183h-1.867a.173.173 0 01-.167-.142l-1.67-7.72c-.047-.212-.34-.176-.34.042l.016 7.637c0 .101-.077.183-.172.183h-1.456c-.095 0-.172-.082-.172-.183V4.183c0-.101.077-.183.172-.183h2.035c.08 0 .15.059.167.142l1.502 6.97c.046.213.34.177.339-.04L93.2 4.182c0-.1.077-.183.172-.183h1.456zM97.997 6.123c0-.101-.083-.183-.184-.183h-1.63A.183.183 0 0196 5.757V4.183c0-.101.082-.183.184-.183h5.633c.1 0 .183.082.183.183v1.574a.183.183 0 01-.183.183h-1.63a.183.183 0 00-.183.183v11.694c0 .101-.082.183-.184.183h-1.64a.183.183 0 01-.183-.183V6.123zM107.958 5.817c0 .1-.085.183-.19.183h-2.578a.187.187 0 00-.191.183v3.634c0 .101.085.183.19.183h2.474c.106 0 .191.082.191.183v1.634c0 .101-.085.183-.19.183h-2.474a.187.187 0 00-.191.183v3.754c0 .101.085.183.19.183h2.62c.106 0 .191.082.191.183v1.514c0 .101-.085.183-.19.183h-4.62a.187.187 0 01-.19-.183V4.183c0-.101.085-.183.19-.183h4.578c.105 0 .19.082.19.183v1.634zM111.003 15.817c0 .101.082.183.184.183h1.625c.102 0 .185.082.185.183v1.634c0 .101-.083.183-.185.183h-3.628a.183.183 0 01-.184-.183V4.183c0-.101.082-.183.184-.183h1.635c.101 0 .184.082.184.183v11.634zM116.003 15.817c0 .101.082.183.184.183h1.625c.102 0 .185.082.185.183v1.634c0 .101-.083.183-.185.183h-3.628a.183.183 0 01-.184-.183V4.183c0-.101.082-.183.184-.183h1.635c.101 0 .184.082.184.183v11.634zM119.17 18c-.094 0-.17-.082-.17-.183V4.183c0-.101.076-.183.17-.183h1.66c.094 0 .17.082.17.183v13.634c0 .101-.076.183-.17.183h-1.66zM125.002 10.18c0-.1.077-.183.172-.183h2.662c.09 0 .164.077.164.173v5.369c0 1.442-1.102 2.611-2.46 2.611h-1.08c-1.358 0-2.46-1.169-2.46-2.611V6.461c0-1.442 1.102-2.611 2.46-2.611h1.06c1.647 0 2.482.863 2.482 2.59v2.087c0 .101-.078.183-.173.183h-1.651c-.096 0-.173-.082-.173-.183V6.56c0-.562-.247-.823-.758-.823h-.466c-.429 0-.776.369-.776.823v8.878c0 .454.347.823.776.823h.445c.428 0 .775-.369.775-.823v-3.25c0-.102-.077-.184-.173-.184h-.654c-.095 0-.172-.082-.172-.184v-1.64zM133.958 5.817c0 .1-.085.183-.19.183h-2.578a.187.187 0 00-.191.183v3.634c0 .101.085.183.19.183h2.474c.106 0 .191.082.191.183v1.634c0 .101-.085.183-.19.183h-2.474a.187.187 0 00-.191.183v3.754c0 .101.085.183.19.183h2.62c.106 0 .191.082.191.183v1.514c0 .101-.085.183-.19.183h-4.62a.187.187 0 01-.19-.183V4.183c0-.101.085-.183.19-.183h4.578c.105 0 .19.082.19.183v1.634zM140.828 4c.095 0 .172.082.172.183v13.634c0 .101-.077.183-.172.183h-1.867a.173.173 0 01-.167-.142l-1.67-7.72c-.047-.212-.34-.176-.34.042l.016 7.637c0 .101-.077.183-.172.183h-1.456c-.095 0-.172-.082-.172-.183V4.183c0-.101.077-.183.172-.183h2.035c.08 0 .15.059.167.142l1.502 6.97c.046.213.34.177.339-.04l-.015-6.889c0-.1.077-.183.172-.183h1.456zM148 15.539c0 1.442-1.116 2.611-2.492 2.611h-1.016c-1.376 0-2.492-1.169-2.492-2.611V6.461c0-1.442 1.116-2.611 2.492-2.611h1.037c1.365 0 2.473 1.16 2.473 2.591v2.688a.18.18 0 01-.176.183h-1.652A.18.18 0 01146 9.13V6.56c0-.562-.25-.823-.767-.823h-.445c-.434 0-.786.369-.786.823v8.878c0 .454.352.823.786.823h.483c.518 0 .767-.26.767-.823v-2.99a.18.18 0 01.176-.184h1.612a.18.18 0 01.175.184v3.09zM153.958 5.817c0 .1-.085.183-.19.183h-2.578a.187.187 0 00-.191.183v3.634c0 .101.085.183.19.183h2.474c.106 0 .191.082.191.183v1.634c0 .101-.085.183-.19.183h-2.474a.187.187 0 00-.191.183v3.754c0 .101.085.183.19.183h2.62c.106 0 .191.082.191.183v1.514c0 .101-.085.183-.19.183h-4.62a.187.187 0 01-.19-.183V4.183c0-.101.085-.183.19-.183h4.578c.105 0 .19.082.19.183v1.634zM85.17 36c-.093 0-.17-.082-.17-.183V22.183c0-.101.077-.183.17-.183h1.66c.094 0 .17.082.17.183v13.634c0 .101-.076.183-.17.183h-1.66zM94.828 22c.095 0 .172.082.172.183v13.634c0 .101-.077.183-.172.183h-1.867a.173.173 0 01-.167-.142l-1.67-7.72c-.047-.212-.34-.176-.34.042l.016 7.637c0 .101-.077.183-.172.183h-1.456c-.095 0-.172-.082-.172-.183V22.183c0-.101.077-.183.172-.183h2.035c.08 0 .15.059.167.142l1.502 6.97c.046.213.34.177.339-.04l-.015-6.889c0-.1.077-.183.172-.183h1.456zM97.997 24.123c0-.101-.083-.183-.184-.183h-1.63a.183.183 0 01-.183-.183v-1.574c0-.101.082-.183.184-.183h5.633c.1 0 .183.082.183.183v1.574a.183.183 0 01-.183.183h-1.63a.183.183 0 00-.183.183v11.694c0 .101-.082.183-.184.183h-1.64a.183.183 0 01-.183-.183V24.123zM107.958 23.817c0 .1-.085.183-.19.183h-2.578a.187.187 0 00-.191.183v3.634c0 .101.085.183.19.183h2.474c.106 0 .191.082.191.183v1.634c0 .101-.085.183-.19.183h-2.474a.187.187 0 00-.191.183v3.754c0 .101.085.183.19.183h2.62c.106 0 .191.082.191.183v1.514c0 .101-.085.183-.19.183h-4.62a.187.187 0 01-.19-.183V22.183c0-.101.085-.183.19-.183h4.578c.105 0 .19.082.19.183v1.634zM111.003 33.817c0 .101.082.183.184.183h1.625c.102 0 .185.082.185.183v1.634c0 .101-.083.183-.185.183h-3.628a.183.183 0 01-.184-.183V22.183c0-.101.082-.183.184-.183h1.635c.101 0 .184.082.184.183v11.634zM116.003 33.817c0 .101.082.183.184.183h1.625c.102 0 .185.082.185.183v1.634c0 .101-.083.183-.185.183h-3.628a.183.183 0 01-.184-.183V22.183c0-.101.082-.183.184-.183h1.635c.101 0 .184.082.184.183v11.634zM119.17 36c-.094 0-.17-.082-.17-.183V22.183c0-.101.076-.183.17-.183h1.66c.094 0 .17.082.17.183v13.634c0 .101-.076.183-.17.183h-1.66zM125.002 28.18c0-.1.077-.183.172-.183h2.662c.09 0 .164.077.164.173v5.369c0 1.442-1.102 2.611-2.46 2.611h-1.08c-1.358 0-2.46-1.169-2.46-2.611v-9.078c0-1.442 1.102-2.611 2.46-2.611h1.06c1.647 0 2.482.863 2.482 2.59v2.087c0 .101-.078.183-.173.183h-1.651c-.096 0-.173-.082-.173-.183V24.56c0-.562-.247-.823-.758-.823h-.466c-.429 0-.776.369-.776.823v8.878c0 .454.347.823.776.823h.445c.428 0 .775-.369.775-.823v-3.25c0-.102-.077-.184-.173-.184h-.654c-.095 0-.172-.082-.172-.184v-1.64zM133.958 23.817c0 .1-.085.183-.19.183h-2.578a.187.187 0 00-.191.183v3.634c0 .101.085.183.19.183h2.474c.106 0 .191.082.191.183v1.634c0 .101-.085.183-.19.183h-2.474a.187.187 0 00-.191.183v3.754c0 .101.085.183.19.183h2.62c.106 0 .191.082.191.183v1.514c0 .101-.085.183-.19.183h-4.62a.187.187 0 01-.19-.183V22.183c0-.101.085-.183.19-.183h4.578c.105 0 .19.082.19.183v1.634zM140.828 22c.095 0 .172.082.172.183v13.634c0 .101-.077.183-.172.183h-1.867a.173.173 0 01-.167-.142l-1.67-7.72c-.047-.212-.34-.176-.34.042l.016 7.637c0 .101-.077.183-.172.183h-1.456c-.095 0-.172-.082-.172-.183V22.183c0-.101.077-.183.172-.183h2.035c.08 0 .15.059.167.142l1.502 6.97c.046.213.34.177.339-.04l-.015-6.889c0-.1.077-.183.172-.183h1.456zM148 33.539c0 1.442-1.116 2.611-2.492 2.611h-1.016c-1.376 0-2.492-1.169-2.492-2.611v-9.078c0-1.442 1.116-2.611 2.492-2.611h1.037c1.365 0 2.473 1.16 2.473 2.591v2.688a.18.18 0 01-.176.183h-1.652a.18.18 0 01-.175-.183V24.56c0-.562-.25-.823-.767-.823h-.445c-.434 0-.786.369-.786.823v8.878c0 .454.352.823.786.823h.483c.518 0 .767-.26.767-.823v-2.99a.18.18 0 01.176-.184h1.612a.18.18 0 01.175.184v3.09zM153.958 23.817c0 .1-.085.183-.19.183h-2.578a.187.187 0 00-.191.183v3.634c0 .101.085.183.19.183h2.474c.106 0 .191.082.191.183v1.634c0 .101-.085.183-.19.183h-2.474a.187.187 0 00-.191.183v3.754c0 .101.085.183.19.183h2.62c.106 0 .191.082.191.183v1.514c0 .101-.085.183-.19.183h-4.62a.187.187 0 01-.19-.183V22.183c0-.101.085-.183.19-.183h4.578c.105 0 .19.082.19.183v1.634zM159.997 6.123c0-.101-.083-.183-.184-.183h-1.63a.183.183 0 01-.183-.183V4.183c0-.101.082-.183.184-.183h5.633c.1 0 .183.082.183.183v1.574a.183.183 0 01-.183.183h-1.63a.183.183 0 00-.183.183v11.694c0 .101-.082.183-.184.183h-1.64a.183.183 0 01-.183-.183V6.123zM165.168 18c-.093 0-.168-.08-.168-.18V4.18c0-.1.075-.18.168-.18h1.664c.093 0 .168.08.168.18v13.64c0 .1-.075.18-.168.18h-1.664zM168.178 18c-.098 0-.178-.09-.178-.203v-2.594c0-.112.08-.203.178-.203h1.644c.099 0 .178.09.178.203v2.594c0 .112-.08.203-.178.203h-1.644zM164.005 22.137c0-.076.058-.137.13-.137h1.735c.072 0 .13.061.13.137v13.726a.133.133 0 01-.13.137h-1.735a.133.133 0 01-.13-.137v-5.726a.133.133 0 00-.13-.137h-1.75a.133.133 0 00-.13.137v5.726a.133.133 0 01-.13.137h-1.735a.133.133 0 01-.13-.137V22.137c0-.076.058-.137.13-.137h1.735c.072 0 .13.061.13.137v5.726c0 .076.058.137.13.137h1.75c.072 0 .13-.061.13-.137v-5.726zM173 33.407c0 1.515-1.178 2.743-2.632 2.743h-.736c-1.454 0-2.632-1.228-2.632-2.743v-11.27c0-.075.06-.137.132-.137h1.734c.073 0 .132.062.132.138v11.17c0 .529.412.958.92.958h.315c.52 0 .77-.26.77-.822V22.138c0-.076.058-.138.131-.138h1.734c.073 0 .132.062.132.138v11.27zM179.839 22.118a.137.137 0 01.134-.118h2.891c.075 0 .136.061.136.137v13.726c0 .076-.06.137-.136.137h-1.725a.136.136 0 01-.136-.137v-8.482c0-.17-.326-.188-.35-.02l-1.236 8.522a.136.136 0 01-.134.117h-1.643a.136.136 0 01-.134-.117l-1.236-8.555c-.025-.168-.27-.15-.27.02v8.515c0 .076-.061.137-.136.137h-1.728a.136.136 0 01-.136-.137V22.137c0-.076.06-.137.136-.137h2.91c.068 0 .126.05.135.118l1.194 8.757c.022.158.248.158.27 0l1.194-8.757zM188.826 22c.07 0 .13.05.139.118l2.034 13.725a.139.139 0 01-.14.157h-1.89a.14.14 0 01-.14-.12l-.256-1.757a.14.14 0 00-.14-.12h-2.03a.14.14 0 00-.14.121l-.237 1.755a.14.14 0 01-.14.121h-1.745a.138.138 0 01-.14-.156l2.014-13.726a.14.14 0 01.14-.118h2.67zm-1.54 4.01l-.741 5.831a.139.139 0 00.14.155h1.467c.085 0 .15-.072.14-.154l-.726-5.832c-.02-.16-.259-.16-.28 0zM192.168 36c-.093 0-.168-.08-.168-.18V22.18c0-.1.075-.18.168-.18h1.664c.093 0 .168.08.168.18v13.64c0 .1-.075.18-.168.18h-1.664zM200.828 22c.095 0 .172.082.172.183v13.634c0 .101-.077.183-.172.183h-1.867a.173.173 0 01-.167-.142l-1.67-7.72c-.047-.212-.34-.176-.34.042l.016 7.637c0 .101-.077.183-.172.183h-1.456c-.095 0-.172-.082-.172-.183V22.183c0-.101.077-.183.172-.183h2.035c.08 0 .15.059.167.142l1.502 6.97c.046.213.34.177.339-.04l-.015-6.889c0-.1.077-.183.172-.183h1.456zM206.958 23.817c0 .1-.085.183-.19.183h-2.578a.187.187 0 00-.191.183v3.634c0 .101.085.183.19.183h2.474c.106 0 .191.082.191.183v1.634c0 .101-.085.183-.19.183h-2.474a.187.187 0 00-.191.183v3.754c0 .101.085.183.19.183h2.62c.106 0 .191.082.191.183v1.514c0 .101-.085.183-.19.183h-4.62a.187.187 0 01-.19-.183V22.183c0-.101.085-.183.19-.183h4.578c.105 0 .19.082.19.183v1.634zM208.136 36c-.075 0-.136-.07-.136-.155v-2.69c0-.086.06-.155.136-.155h1.728c.075 0 .136.07.136.155v2.69c0 .086-.06.155-.136.155h-1.728z"/><path d="M2 0C.8 0 0 1 0 2v36c0 1 .8 2 2 2h6c1.2 0 2-1 2-2V2c0-1-.8-2-2-2H2zM54 0c-1.2 0-2 1-2 2v36c0 1 .8 2 2 2h6c1.2 0 2-1 2-2V2c0-1-.8-2-2-2h-6zM28 20c-1.2.014-2 1-2 2v16c0 1 .8 2 2 2h6c1.2 0 2-1 2-2V22c0-1-.8-1.986-2-2h-6zM41 2c-.014-1.2-1-2-2-2H23c-1 0-2 .8-2 2v6c0 1.2 1 2 2 2h16c1 0 1.986-.8 2-2V2z"/></g></symbol><symbol id="logo-mark" viewBox="0 0 62 40"><path fill="#1D1D1B" fill-rule="nonzero" d="M2 0C.8 0 0 1 0 2v36c0 1 .8 2 2 2h6c1.2 0 2-1 2-2V2c0-1-.8-2-2-2H2zM54 0c-1.2 0-2 1-2 2v36c0 1 .8 2 2 2h6c1.2 0 2-1 2-2V2c0-1-.8-2-2-2h-6zM28 20c-1.2.014-2 1-2 2v16c0 1 .8 2 2 2h6c1.2 0 2-1 2-2V22c0-1-.8-1.986-2-2h-6zM41 2c-.014-1.2-1-2-2-2H23c-1 0-2 .8-2 2v6c0 1.2 1 2 2 2h16c1 0 1.986-.8 2-2V2z"/></symbol><symbol id="play" viewBox="0 0 13 15">
  <polygon fill-rule="evenodd" points="50.5 43 58 56 43 56" transform="rotate(90 49.5 6.5)"/>
</symbol><symbol id="questionmark" viewBox="0 0 155 239">
  <path fill="#3CEDB7" d="M85.3333312,35.9999991 L61.0466651,35.9999991 C57.7813319,35.9999991 55.109332,33.3266658 55.109332,30.0613326 L55.109332,6.03333318 C55.109332,2.76799993 57.7813319,0.0959999976 61.0466651,0.0959999976 L85.3333312,0.0959999976 C88.5986645,0.0959999976 91.2706644,2.76799993 91.2706644,6.03333318 L91.2706644,30.0613326 C91.2706644,33.3266658 88.5986645,35.9999991 85.3333312,35.9999991 M146.331996,152.170663 L120.494664,152.170663 C118.662664,152.170663 117.078664,150.931996 116.60133,149.162663 C114.863997,142.70933 111.617331,136.72533 107.029331,131.690663 L58.8719985,90.4386644 C56.4839986,88.3946645 55.109332,85.4066645 55.109332,82.2626646 L55.109332,50.9026654 C55.109332,47.6373321 57.7813319,44.9653322 61.0466651,44.9653322 L85.3333312,44.9653322 C88.5986645,44.9653322 91.2706644,47.6373321 91.2706644,50.9026654 L91.2706644,71.9386649 C91.2706644,75.2679981 92.8106643,78.4106647 95.4426643,80.4493313 L130.051997,107.573331 C130.36133,107.855997 130.659997,108.151997 130.950663,108.462664 C141.199996,119.402664 147.86133,132.942663 150.32533,147.490663 C150.74133,149.94133 148.815996,152.170663 146.331996,152.170663 M77.2413314,202.629328 C98.1519975,201.866662 115.679997,185.549329 117.84533,164.735996 C117.846664,164.722663 117.847997,164.710663 117.84933,164.697329 C118.063997,162.602663 119.76533,160.977329 121.870664,160.977329 L147.207996,160.977329 C149.514663,160.977329 151.379996,162.907996 151.243996,165.209329 C151.19333,166.074663 151.126663,166.941329 151.039996,167.807996 C147.203996,206.926661 113.38533,236.779994 74.0866648,235.974661 C35.8333324,235.191994 4.45599989,205.909328 0.365333324,168.542662 C-0.118666664,164.121329 3.30533325,160.241329 7.75466647,160.241329 L26.3653327,160.241329 C30.0159992,160.241329 33.1706658,162.882663 33.7053325,166.493329 C36.8119991,187.431995 55.277332,203.430662 77.2413314,202.629328" transform="matrix(1 0 0 -1 1.758 237.928)"/>
</symbol><symbol id="quote" viewBox="0 0 127 124">
    <path d="M13.0975037,4.80032357 L0.991666084,16.6309997 C-1.24495292,18.8167811 -1.24533156,22.3609515 0.991287445,24.5463629 L55.1858495,77.5091014 C57.4224685,79.6948829 61.0486916,79.6948829 63.2853106,77.5091014 L75.3911482,65.6780553 C77.6277673,63.4922738 77.6277673,59.9484735 75.3911482,57.7630621 L21.1969649,4.80032357 C18.9603459,2.61454214 15.3341227,2.61454214 13.0975037,4.80032357" transform="translate(38.191313, 41.154713) rotate(-90.000000) translate(-38.191313, -41.154713) "/>
    <g transform="translate(85.141425, 61.785988) scale(1, -1) translate(-85.141425, -61.785988) translate(46.141425, 0.785988)">
        <path d="M12.9584912,3.28933607 L0.852653584,15.1200122 C-1.38396542,17.3057936 -1.38434406,20.849964 0.852274945,23.0353754 L55.046837,75.9981139 C57.283456,78.1838954 60.9096791,78.1838954 63.1462981,75.9981139 L75.2521357,64.1670678 C77.4887548,61.9812863 77.4887548,58.437486 75.2521357,56.2520746 L21.0579524,3.28933607 C18.8213334,1.10355464 15.1951102,1.10355464 12.9584912,3.28933607" transform="translate(38.052300, 39.643725) rotate(-90.000000) translate(-38.052300, -39.643725) "/>
        <path d="M64.5224654,68.237497 L76.5835156,80.1071322 C78.8118599,82.3001115 78.8122372,85.855953 76.5838929,88.0485611 L44.3919192,119.730003 C42.1635749,121.922611 38.5507675,121.922611 36.3224232,119.729632 L24.2609957,107.859996 C22.0326514,105.667017 22.0326514,102.111547 24.2609957,99.9185675 L56.4529694,68.237497 C58.6813137,66.0445177 62.2941211,66.0445177 64.5224654,68.237497" transform="translate(50.422350, 93.983587) rotate(-90.000000) translate(-50.422350, -93.983587) "/>
    </g>
    <path d="M64.6614779,69.7484845 L76.7225281,81.6181197 C78.9508724,83.811099 78.9512497,87.3669405 76.7229054,89.5595486 L44.5309317,121.24099 C42.3025874,123.433598 38.68978,123.433598 36.4614357,121.240619 L24.4000082,109.370984 C22.1716639,107.178005 22.1716639,103.622534 24.4000082,101.429555 L56.5919819,69.7484845 C58.8203262,67.5555052 62.4331336,67.5555052 64.6614779,69.7484845" transform="translate(50.561362, 95.494575) rotate(-90.000000) translate(-50.561362, -95.494575) "/>  
</symbol><symbol id="shape-arrow-big" viewBox="0 0 152.4 102.2">
<style type="text/css">
	.st0{fill-rule:evenodd;clip-rule:evenodd;}
</style>
<path class="st0" d="M53.7,0.7l18,9.2c3.3,1.7,4.6,5.7,2.8,9l-43,79.6c-1.8,3.3-5.9,4.6-9.2,2.9l-18-9.2c-3.3-1.7-4.6-5.7-2.8-9
	l43-79.6C46.2,0.3,50.4-0.9,53.7,0.7 M91.6,28.4L82,46.2c-1.8,3.3-0.5,7.3,2.8,9.1l48,24.7c3.3,1.7,7.4,0.4,9.2-2.9l9.5-17.8
	c1.8-3.3,0.5-7.3-2.8-9.1l-48-24.7C97.5,23.8,93.4,25.1,91.6,28.4"/>
</symbol><symbol id="shape-arrowdown" viewBox="0 0 147 201">
  <path fill-rule="evenodd" d="M69.1862621 1.98707403L54.5125195 16.3272875C51.8014662 18.9767196 51.8010072 23.2726837 54.5120605 25.9216672L120.202439 90.118926C122.913492 92.768358 127.308914 92.768358 130.019967 90.118926L144.69371 75.778264C147.404763 73.1288319 147.404763 68.8333163 144.69371 66.1843328L79.0037907 1.98707403C76.2927374-.662358009 71.8973154-.662358009 69.1862621 1.98707403M50.827549 29.8396176L65.4470038 44.2270541C68.1480272 46.8852109 68.1484845 51.1953218 65.4474611 53.8530286L26.4268869 92.2547762C23.7258635 94.9124829 19.346703 94.9124829 16.6456796 92.2543262L2.02576754 77.8668896C-.675255847 75.2087329-.675255847 70.8990719 2.02576754 68.2409152L41.0463417 29.8396176C43.7473651 27.1814608 48.1265256 27.1814608 50.827549 29.8396176M83.0952494 64.26L62.5612047 64.26C58.7673837 64.26 55.692 67.3113472 55.692 71.0750659L55.692 193.461484C55.692 197.225653 58.7673837 200.277 62.5612047 200.277L83.0952494 200.277C86.8890704 200.277 89.964 197.225653 89.964 193.461484L89.964 71.0750659C89.964 67.3113472 86.8890704 64.26 83.0952494 64.26" transform="matrix(1 0 0 -1 0 201)"/>
</symbol><symbol id="shape-brackets" viewBox="0 0 189 71">
  <path fill="#135CFD" fill-rule="evenodd" d="M31.07651,1.67331 C33.12161,-0.37179 36.43661,-0.37179 38.48171,1.67331 L38.48171,1.67331 L49.55041,12.74201 C51.59381,14.78711 51.59551,18.10211 49.55041,20.14721 L49.55041,20.14721 L34.149066,35.547575 L49.55041,50.94832 C51.59381,52.99342 51.59381,56.30842 49.55041,58.35352 L38.48171,69.42222 C36.43661,71.46732 33.12161,71.46732 31.07651,69.42222 L1.53391,39.87962 C0.35099252,38.6967025 -0.147707188,37.0889216 0.0378108744,35.5477725 C-0.147760028,34.0067787 0.35092985,32.3988902 1.53391,31.21591 L1.53391,31.21591 Z M157.87305,1.67331 L187.41565,31.21591 C188.59863,32.3988902 189.09732,34.0067787 188.91172,35.5480025 C189.09732,37.0889213 188.59863,38.6968098 187.41565,39.87979 L187.41565,39.87979 L157.87305,69.42239 C155.82795,71.46749 152.51295,71.46749 150.46785,69.42239 L150.46785,69.42239 L139.39915,58.35369 C137.35575,56.30859 137.35575,52.99359 139.39915,50.94849 L139.39915,50.94849 L154.799066,35.547575 L139.39915,20.14721 C137.35575,18.10211 137.35575,14.78711 139.39915,12.74201 L150.46785,1.67331 C152.51295,-0.37179 155.82795,-0.37179 157.87305,1.67331 Z M111.30682,1.5334 C113.35192,-0.5117 116.66692,-0.5117 118.71202,1.5334 L118.71202,1.5334 L129.78072,12.6021 C131.82582,14.6472 131.82582,17.9622 129.78072,20.0073 L129.78072,20.0073 L80.36682,69.4212 C78.32172,71.4663 75.00672,71.4663 72.96162,69.4212 L72.96162,69.4212 L61.89292,58.3542 C59.84782,56.3091 59.84782,52.9924 61.89292,50.9473 L61.89292,50.9473 Z"/>
</symbol><symbol id="shape-dash" viewBox="0 0 163 41">
  <rect width="163" height="41" x="279" y="423" fill-rule="evenodd" rx="8" transform="translate(-279 -423)"/>
</symbol><symbol id="shape-diagonal" viewBox="0 0 129 185">
  <path fill-rule="evenodd" d="M106.19127,86.55759 C108.50247,84.24459 112.25007,84.24459 114.56307,86.55759 L114.56307,86.55759 L127.07667,99.07119 C129.38787,101.38239 129.38787,105.13179 127.07667,107.44299 L127.07667,107.44299 L51.90327,182.61639 C49.59207,184.92759 45.84447,184.92759 43.53147,182.61639 L43.53147,182.61639 L31.01787,170.10279 C28.70487,167.78979 28.70487,164.04219 31.01787,161.72919 L31.01787,161.72919 Z M72.79047,72.28665 L85.30407,84.80025 C87.61707,87.11325 87.61707,90.86085 85.30407,93.17385 L51.90327,126.57285 C49.59207,128.88585 45.84447,128.88585 43.53147,126.57285 L31.01787,114.05925 C28.70667,111.74625 28.70667,107.99865 31.01787,105.68745 L64.41867,72.28665 C66.72987,69.97545 70.47927,69.97545 72.79047,72.28665 Z M76.90815,1.73475 C79.21935,-0.57825 82.96695,-0.57825 85.27995,1.73475 L85.27995,1.73475 L97.79355,14.24835 C100.10475,16.55955 100.10475,20.30895 97.79355,22.62015 L97.79355,22.62015 L22.62015,97.79355 C20.30895,100.10475 16.56135,100.10475 14.24835,97.79355 L14.24835,97.79355 L1.73475,85.27995 C-0.57825,82.96695 -0.57825,79.21935 1.73475,76.90635 L1.73475,76.90635 Z"/>
</symbol><symbol id="shape-download" viewBox="0 0 177 200">
  <g fill="#135CFD" fill-rule="evenodd">
    <g transform="matrix(0 -1 -1 0 149.5 153.5)">
      <path d="M12.9584912,3.28933607 L0.852653584,15.1200122 C-1.38396542,17.3057936 -1.38434406,20.849964 0.852274945,23.0353754 L55.046837,75.9981139 C57.283456,78.1838954 60.9096791,78.1838954 63.1462981,75.9981139 L75.2521357,64.1670678 C77.4887548,61.9812863 77.4887548,58.437486 75.2521357,56.2520746 L21.0579524,3.28933607 C18.8213334,1.10355464 15.1951102,1.10355464 12.9584912,3.28933607" transform="rotate(-90 38.052 39.644)"/>
      <path d="M72.9124662,23.7683111 L60.8066286,35.5989872 C58.5700096,37.7847686 58.5696309,41.328939 60.8062499,43.5143504 L115.000812,96.4770889 C117.237431,98.6628704 120.863654,98.6628704 123.100273,96.4770889 L135.206111,84.6460428 C137.44273,82.4602613 137.44273,78.916461 135.206111,76.7310496 L81.0119274,23.7683111 C78.7753084,21.5825296 75.1490852,21.5825296 72.9124662,23.7683111" transform="rotate(-45 98.006 60.123)"/>
      <path d="M64.5224654,68.237497 L76.5835156,80.1071322 C78.8118599,82.3001115 78.8122372,85.855953 76.5838929,88.0485611 L44.3919192,119.730003 C42.1635749,121.922611 38.5507675,121.922611 36.3224232,119.729632 L24.2609957,107.859996 C22.0326514,105.667017 22.0326514,102.111547 24.2609957,99.9185675 L56.4529694,68.237497 C58.6813137,66.0445177 62.2941211,66.0445177 64.5224654,68.237497" transform="rotate(-90 50.422 93.984)"/>
    </g>
    <path d="M170.4832,-0.000399999999 C173.7442,-0.000399999999 176.4122,2.6676 176.4122,5.9296 L176.4122,53.3616 C176.4122,56.6226 173.7442,59.2906 170.4832,59.2906 L153.2202,59.2906 C149.9592,59.2906 147.2912,56.6226 147.2912,53.3616 L147.2912,5.9296 C147.2912,2.6676 149.9592,-0.000399999999 153.2202,-0.000399999999 L170.4832,-0.000399999999 Z M23.1927,-0.000399999999 C26.4537,-0.000399999999 29.1217,2.6676 29.1217,5.9296 L29.1217,30.1686 L135.9223,30.1692 C139.1833,30.1692 141.8513,32.8372 141.8513,36.0982 L141.8513,53.3612 C141.8513,56.6222 139.1833,59.2902 135.9223,59.2902 L23.2367313,59.2904378 C23.2220663,59.2905459 23.2073892,59.2906 23.1927,59.2906 L5.9287,59.2906 C2.6687,59.2906 -0.000300000001,56.6226 -0.000300000001,53.3616 L-0.000300000001,5.9296 C-0.000300000001,2.6676 2.6687,-0.000399999999 5.9287,-0.000399999999 L23.1927,-0.000399999999 Z" transform="translate(0 140)"/>
  </g>
</symbol><symbol id="shape-lines" viewBox="0 0 189 98">
  <path fill="#3CEDB7" fill-rule="evenodd" d="M159.119292,0 C161.814143,0 164,2.19771782 164,4.91052575 L164,4.91052575 L164,93.0894742 C164,95.8022822 161.814143,98 159.119292,98 L159.119292,98 L144.529108,98 C141.834257,98 139.6484,95.8022822 139.6484,93.0894742 L139.6484,93.0894742 L139.6484,4.91052575 C139.6484,2.19771782 141.834257,0 144.529108,0 L144.529108,0 Z M120.899152,0 C123.594003,0 125.77986,2.19771782 125.77986,4.91052575 L125.77986,4.91052575 L125.77986,93.0894742 C125.77986,95.8022822 123.594003,98 120.899152,98 L120.899152,98 L106.308968,98 C103.614117,98 101.42826,95.8022822 101.42826,93.0894742 L101.42826,93.0894742 L101.42826,4.91052575 C101.42826,2.19771782 103.614117,0 106.308968,0 L106.308968,0 Z M84.9168071,7.74491582e-13 C87.6116581,7.74491582e-13 89.7975147,2.19771782 89.7975147,4.91052575 L89.7975147,4.91052575 L89.7975147,93.0894742 C89.7975147,95.8022822 87.6116581,98 84.9168071,98 L84.9168071,98 L70.3266225,98 C67.6317715,98 65.4459149,95.8022822 65.4459149,93.0894742 L65.4459149,93.0894742 L65.4459149,4.91052575 C65.4459149,2.19771782 67.6317715,7.74491582e-13 70.3266225,7.74491582e-13 L70.3266225,7.74491582e-13 Z M44.4708922,-1.91846539e-13 C47.1672272,-1.91846539e-13 49.3515998,2.19771782 49.3515998,4.91052575 L49.3515998,4.91052575 L49.3515998,93.0894742 C49.3515998,95.8022822 47.1672272,98 44.4708922,98 L44.4708922,98 L29.8807076,98 C27.1858566,98 25,95.8022822 25,93.0894742 L25,93.0894742 L25,4.91052575 C25,2.19771782 27.1858566,-1.91846539e-13 29.8807076,-1.91846539e-13 L29.8807076,-1.91846539e-13 Z"/>
</symbol><symbol id="shape-plus" viewBox="0 0 100 100">
    <path d="M55.39,63.54H44.61c-1.99,0-3.6,1.61-3.6,3.6V95.9c0,1.99,1.61,3.6,3.6,3.6h10.77c1.99,0,3.6-1.61,3.6-3.6V67.14C58.99,65.15,57.38,63.54,55.39,63.54"/>
    <path d="M36.46,43.82V54.6c0,1.99-1.61,3.6-3.6,3.6H4.1c-1.99,0-3.6-1.61-3.6-3.6V43.82c0-1.99,1.61-3.6,3.6-3.6h28.76C34.85,40.22,36.46,41.83,36.46,43.82"/>
    <path d="M63.54,43.82V54.6c0,1.99,1.61,3.6,3.6,3.6H95.9c1.99,0,3.6-1.61,3.6-3.6V43.82c0-1.99-1.61-3.6-3.6-3.6H67.14C65.15,40.22,63.54,41.83,63.54,43.82"/>
    <path d="M55.39,36.46H44.61c-1.99,0-3.6-1.61-3.6-3.6V4.1c0-1.99,1.61-3.6,3.6-3.6h10.77c1.99,0,3.6,1.61,3.6,3.6v28.76C58.99,34.85,57.38,36.46,55.39,36.46"/>
</symbol><symbol id="shape-square" viewBox="0 0 120 120"><path d="M106.491 66.893l11.862 11.862a5.612 5.612 0 010 7.938l-31.66 31.66a5.612 5.612 0 01-7.938 0l-11.862-11.862a5.613 5.613 0 010-7.936l31.662-31.662a5.613 5.613 0 017.936 0zm-92.984 0a5.613 5.613 0 017.936 0l31.662 31.662a5.613 5.613 0 010 7.936l-11.863 11.862a5.612 5.612 0 01-7.937 0l-31.66-31.66a5.612 5.612 0 010-7.938zM78.505 1.644a5.612 5.612 0 017.938 0l31.66 31.66a5.612 5.612 0 010 7.938l-11.862 11.863a5.613 5.613 0 01-7.936 0L66.643 21.443a5.613 5.613 0 010-7.936zm-37.263 0l11.863 11.863a5.613 5.613 0 010 7.936L21.443 53.105a5.613 5.613 0 01-7.936 0L1.644 41.242a5.612 5.612 0 010-7.937l31.66-31.66a5.612 5.612 0 017.938 0z"/></symbol><symbol id="shape-stroke" viewBox="0 0 99 33">
       <path d="M99,6.6140317 C99,2.96068806 96.7795269,0 94.0395721,0 L4.9604279,0 C2.22047313,0 0,2.96068806 0,6.6140317 L0,26.3859683 C0,30.0393119 2.22047313,33 4.9604279,33 L94.0395721,33 C96.7795269,33 99,30.0393119 99,26.3859683 L99,6.6140317 Z" fill="#1AE4B7"/>
</symbol><symbol id="social-facebook" viewBox="0 0 24 24"><title>facebook</title><path id="facebook-1" d="M9,8H6v4H9V24h5V12h3.64L18,8H14V6.33c0-1,.19-1.33,1.12-1.33H18V0H14.19C10.6,0,9,1.58,9,4.62Z"/></symbol><symbol id="social-linkedin" viewBox="0 0 13 13"><title>social0linkedin</title><path d="M3,2A1.24,1.24,0,1,1,1.75.75,1.25,1.25,0,0,1,3,2ZM3,4.25H.5v8H3Zm4,0H4.51v8H7V8.05c0-2.33,3-2.53,3,0v4.2H12.5V7.18C12.5,3.24,8,3.39,7,5.33Z"/></symbol><symbol id="social-twitter" viewBox="0 0 13 13">
<path d="M13,2.5c-0.5,0.2-1,0.4-1.5,0.4c0.6-0.3,1-0.9,1.2-1.5c-0.5,0.3-1.1,0.5-1.7,0.6C10.5,1.5,9.8,1.2,9,1.2
	c-1.5,0-2.7,1.2-2.7,2.7c0,0.2,0,0.4,0.1,0.6C4.2,4.4,2.2,3.3,0.9,1.7C0.7,2.1,0.5,2.6,0.5,3C0.5,4,1,4.8,1.7,5.3
	c-0.4,0-0.8-0.1-1.2-0.3v0c0,1.3,0.9,2.4,2.1,2.6C2.4,7.6,2.2,7.7,2,7.7c-0.2,0-0.3,0-0.5,0c0.3,1.1,1.3,1.8,2.5,1.9
	c-0.9,0.7-2.1,1.1-3.3,1.1c-0.2,0-0.4,0-0.6,0c1.2,0.8,2.6,1.2,4.1,1.2c4.9,0,7.6-4.1,7.6-7.6l0-0.3C12.2,3.5,12.6,3,13,2.5z"/>
</symbol><symbol id="social-youtube" viewBox="0 0 65 65"><title>social-youtube</title><path d="M54,10H11A11,11,0,0,0,0,21V44A11,11,0,0,0,11,55H54A11,11,0,0,0,65,44V21A11,11,0,0,0,54,10ZM45.7,33.8l-19.5,10a1.49,1.49,0,0,1-2-.6,1.45,1.45,0,0,1-.2-.7v-20A1.54,1.54,0,0,1,25.5,21a1.85,1.85,0,0,1,.7.2l19.5,10a1.63,1.63,0,0,1,.7,2A1.34,1.34,0,0,1,45.7,33.8Z"/></symbol><symbol id="talk" viewBox="0 0 29 25">
  <path fill-rule="evenodd" d="M147.753866,19.5972781 C146.965726,19.5972781 146.327111,20.2504302 146.327111,21.055858 C146.327111,21.8612858 146.965726,22.5144379 147.753866,22.5144379 C148.542005,22.5144379 149.180621,21.8612858 149.180621,21.055858 C149.180621,20.2504302 148.542005,19.5972781 147.753866,19.5972781 M142.103917,19.5972781 C141.315777,19.5972781 140.677162,20.2504302 140.677162,21.055858 C140.677162,21.8612858 141.315777,22.5144379 142.103917,22.5144379 C142.891771,22.5144379 143.530671,21.8612858 143.530671,21.055858 C143.530671,20.2504302 142.891771,19.5972781 142.103917,19.5972781 M136.596358,19.5972781 C135.808789,19.5972781 135.169603,20.2504302 135.169603,21.055858 C135.169603,21.8612858 135.808789,22.5144379 136.596358,22.5144379 C137.384497,22.5144379 138.023112,21.8612858 138.023112,21.055858 C138.023112,20.2504302 137.384497,19.5972781 136.596358,19.5972781 M146.954883,28.9905325 L144.129908,28.9905325 L138.879165,32.9870414 L138.879165,28.9905325 L137.795117,28.9905325 C133.314821,28.9905325 129.69115,25.2857396 129.69115,20.7057988 C129.69115,16.125858 133.314821,12.4210651 137.795117,12.4210651 L146.954883,12.4210651 C151.434608,12.4210651 155.05885,16.125858 155.05885,20.7057988 C155.05885,25.2857396 151.434608,28.9905325 146.954883,28.9905325 M146.954883,11.05 L137.795117,11.05 C132.601444,11.05 128.35,15.3673964 128.35,20.6766272 C128.35,25.9275148 132.458769,30.186568 137.538301,30.332426 L137.538301,35.7 L144.586185,30.3615976 L146.954883,30.3615976 C152.176806,30.3615976 156.4,26.0442012 156.4,20.7057988 C156.4,15.3673964 152.147985,11.05 146.954883,11.05" transform="translate(-128 -11)"/>
</symbol></svg>